<mxfile host="65bd71144e">
    <diagram id="V-kYW9GV2uXmBUqnUB78" name="PÃ¡gina-1">
        <mxGraphModel dx="2017" dy="733" grid="0" gridSize="10" guides="0" tooltips="1" connect="1" arrows="1" fold="1" page="0" pageScale="1" pageWidth="827" pageHeight="1169" math="0" shadow="0">
            <root>
                <mxCell id="0"/>
                <mxCell id="1" parent="0"/>
                <mxCell id="23" value="" style="group;fontSize=19;" vertex="1" connectable="0" parent="1">
                    <mxGeometry x="-95" y="131" width="1267" height="2009" as="geometry"/>
                </mxCell>
                <mxCell id="24" value="" style="group" vertex="1" connectable="0" parent="23">
                    <mxGeometry y="686" width="1267" height="1323" as="geometry"/>
                </mxCell>
                <mxCell id="34" value="" style="shape=image;verticalLabelPosition=bottom;labelBackgroundColor=default;verticalAlign=top;aspect=fixed;imageAspect=0;image=data:image/png,iVBORw0KGgoAAAANSUhEUgAABBYAAACWCAYAAABq3QthAAAAAXNSR0IArs4c6QAAAARnQU1BAACxjwv8YQUAAAAJcEhZcwAADsMAAA7DAcdvqGQAAABjaVRYdFNuaXBNZXRhZGF0YQAAAAAAeyJjbGlwUG9pbnRzIjpbeyJ4IjowLCJ5IjowfSx7IngiOjEwNDYsInkiOjB9LHsieCI6MTA0NiwieSI6MTUwfSx7IngiOjAsInkiOjE1MH1dfav35Z4AADTiSURBVHhe7d19jFXV3ejxX+/9w5qB4W3kRaEzAwgdhKmgCALiQxQLF4ToQE19aZ0oJo+PPrHVNMRKcyPaEFNb82i8idgc22qbFqYGlICi4ZE3QRQoKAgyMBR0BkQYBuaqyU1611p77XP22zlnnz1nZs7A95McmL3PPvvss9/Xb6/1W9+prKz8lwAAAAAAACTwP+z/AAAAAAAABSOwAAAAAAAAEiOwAAAAAAAAEiOwAAAAAAAAEiOwAAAAAAAAEiOwAAAAAAAAEiOwAAAAAAAAEiOwAAAAAAAAEiOwAAAAAAAAEiOwAAAAAAAAEiOwAAAAAAAAEiOwAAAAAAAAEiOwAAAAAAAAEiOwAAAAAAAAEiOwAAAAAAAAEiOwAAAAAAAAEiOwAAAAAAAAEiOwAAAAAAAAEiOwAAAAAAAAEiOwAAAAAAAAEuucwELFZFlQv0AmV9jhAgyYtEDq62fJKDsMAAAAAABK1//s27fv/7Z/F8foWVJ/c7Vccv6wvP/hcfnajr7khyvl2v81Vk59MEKGLXlaRt94twxVr76XfiFfNjbZqUS+/vz/yeDxY2TM+JHy3eP75Pj/tW8AAAAAAICS853Kysp/2b87TNc2mDemt8jnWyT19kE71qEDC1dfV2b+PrFmtjTtVH9MeEEmzRmRGU4bIJMXzpOaXiLNW1Oy7oAdDQAAAAAASkrRmkKMuqXeBBV0ICAYVPDyBRF2NkhTq8igmvvtCNdXsm1FSrZ8LjJkSr0smDTAjgcAAAAAAKWkCIEFXbugXqZecU72v5GvdkGjnPbVTNggX59W//X/nlzijPA5+HZKVu87J73HzJP6W8i6AAAAAABAqel4YGH0RNNkodNdUZsoGSQAAAAAAOg8HQ8sHFgnqZRuttBbam4tbrMFt3nFuX2r1XeslG2n7BsAAAAAAKAkFC3HQrJmC/dL/+Ei5w9ukG/tGIfbvMJJ3rhy+1d2PAAAAAAAKCVFCyxoX21fKamtzSJXTJX6hZMlX92F8rvqZJA0yrG3Ntgx2iiZVa97hIiTswEAAAAAAHSnonY3mVYxWRbcOlSOv5FpvuDtbjKtdYfsfv5XvtoKTpeV52VLap1k71sCAAAAAACUgs4JLERwAgstsn/pQ9JmxwEAAAAAgJ6tqE0hAAAAAADAxYXAAgAAAAAASIzAAgAAAAAASKzLciwAAAAAAIALDzUWAAAAAABAYgQWAAAAAABAYh0KLFRXV8t3v/tdOwQAAAAAAC421FgAAAAAAACJEVgAAAAAAACJEVgAAAAAAACJdai7SZ1jobm5Wb755hs7pqvNkEEP/0Kq+oqcWDNbmnba0SgR5fLE/XPkmvI2+ejPa+Spy6bJ6zOHibTtkd+9/IlstFOVruIv//iXjsjcEXZAa/yrLH1gsR0ImPmaPLx4iqjd22qTD5f9QNaut4PoBItk9t8fl2v72MEc67ygbZlTTz9OusHgq+TVO2ulzA5mX1fD5NmfT5PhckxW/XazHJ4xR342vlzk6Ga5reGYnaYbXP6kXHXfRGnv7utWxWRZcGuNnN+aknUH7DgAAIAEqLHQCS754UqZtOQFVVwoAl24fPeI3POgHe7Jvjwj7fr/M22hAsB0dcP/uioA3GuHu0LB35lj+Qtydqssv6lalupXvqCCLqy60950cQYVdAF+yd9fk8F2uHMtl7W32/XdcMiOi7brAXe7/Fo+PGtHFkOx9rNSpAMCP/+xPDvODifV8onc/du/yG3qteqoHRfDxlPOhmo/XcwN1nMNGDFUep/fLzsIKgAAgA7q4YGFDXLi+dmyfSm1FUpTmxw/o/8/K8dbzIgepvuWf/CNY6Wvflq+IskT8M60TO55VxX0Pa+Hn1pk30MyPf04sWzQ4HXPq8MBhA47q+MzahWfkcPOCKSNkoljesu5f34mX9kxAAAASfWAwMIomVVfL7NG20H0XC1tckL912OfFnb58p+UllKqofDgelny7h1S5atFUS0r5Ecye6adBh3XA48TU/vnzlqRXWtMLQL3tXdU19ZCysvWBjlxSkcbMkbdUi/1CyfLADtcXCV6DRs9XIbIOTneGAgr6OYRXHMBAECBSjvHgm3/2VuaZUtqnRy0o725FRzt0vT7BXLiCztold+1VmqkQbZv+J5pz9rLjvflYzBtXcfIKfX5r2eo6Yfb8a07ZPfzv5Jv7aBu3nD1dS2yf+lDkrklvV+qltRJ2QfPyCdvjTB/D7LvhDUGPptbqP12QFNDtfzpRbc9+CF586aZssu+Z9iq9PL+r+X5J5bL4Kf+IYvGfCzLbz8mM3Xh0E7Wat/300+lM9OIRMy/KNz2z9k47aJfsUOaLsCYNtJWuyrI3L3BrtV0u+vA53zjj8q4Ar+zmMx2rdiqtsNdkuvhtNle15/Mud6daTwNbkJt/J3t2Fdv4y9+JEvqRtrx7v6j/tDBgjqRN5edlGkmn4Pe1n+TwW6egfQ87T4RK49AcP8J5ykw60HUvFYM8+WRSC9XKL9EgG5O4q5D8xsGmu9oWeg9bsL7bf515uGZb+4mKPY4PBVn3SR3b92PZb5sltu2lPvyCxxe/xd5dK8dMNycDXZQCR8nVfLpn/dIvzv1seDkdjg+Vc2/Ur0fzFcwzuZ8cAXzE9jjSwcV0t8RYJZdzzuLzG+wy34m/Dt9v8HDzLtfB/NRZL3WdFC2+XpyLJyuiXPdaZBLvde8wHSFGyCTF86TmrNbJPV2+NfqQMvUK0TO7VstK7dTnwEAAORXuoGF0bOkfsoQkfP7ZfWKbdmrak54QSbNGZw9sGBu2DKFeudGTRVg3OntDZ4JOhxukO2vvaz+cAIGg9LDcQILG+y4bNMmZAtYrW6BK8gUfkZmCmSWU4CSdKHIW6DyFyoDnw0EJDQnyNFZwQWHEzA4m7NQ7xROPAX/qAKNLQRlCiFuIStbkCL3dxZbzsCC3R5ZpQvBUQElW5j3Frh9BfzMtL5940qn8Nx69qRsvv0jGasDEWfVetv3gqyQh9R0NriRZT8LsdN5A1buvuf9bCZwlmW5gkGIXMEY73oLriNxPxd3nXmY+ZZYYMEUzjP7srMPi5P00f6Ae+vmyNAtmeHQMWEDC/rk9Ombm0TmzpHvq4GyM3vktoOVato+6fmF52+DgZ7gQtQyZGWP2ROhYIjLGxSxySz1PO1vCAdRihRYMHTNgqnmKf7+N1bKtlN2dFK5rmE2oC2tZdLrdL7rjhNaOZ++zoSnK1iMpI0DJi2QeWN6i3weHXwAAADwKsmmEPqGRt+Q6aclqVxBhVh0bYZMAf/bvfvkvJTJpcFMcL6btJel+YN2keFXFycBY2d68SNpUv9VXb3MGTYWyfgxaskb14YKRL6C4Yt/M0nnvJ8dv3CKKlhulRWeWgy7Hvir+o6RMs22pb9h8R+loaEhy+uP8ssbzWTFpQokN6tC1eH1niBAyyfy0i5VIBpfm6luvXez/M6Mu0GeUNt4+owbbLb9rgseJPbizHTzguXv6z1WF4IzTQ7ShdYHf6QKyLoWgFtA1hbLn3SywT5TZGYw0adJFpmZtuW9j6VV7dkVV9oRei/f97f0+33lY8/2HyiDZ6r94mpdcD8kH+cKKugC9s1qOlW499aCaXniBWc/uzmYgNH/G8LLVRgdzMgU7JfLrn1qHfYZqAqKSqHrrBjqfxNxfGRev6m30xXEvy9v3N+kznDl0u8yO0J5pSFQwN+7Rz5Sq6JsxDCZbkfpba4DCe50ZeVnZVW6FoI7v2Eyf3y5tO/a5JnfMXl0vZqustYcX3ra6SPU/tPWJBvzBRUKooMnnt+x96jJkTCoojPPyAdlXWq17D/fW2pu7VhTgHjXMG9QQXOvO7Nk0OV2lKVr2WWC1y/Lab0y+n9PLnFGFCxO0savtq+U1NZmkSumdmIzEQAAcKEoucCCroKpn5I0b00Vpwpm6z5pDdRkiHJiv//Jz7df6jvawXJp4Aav9CyWjxvVfyOukfHOCJGZ/yYj+4g07Q4+PQ0WDJdLi34qVzHMFviWydgRepX9d+DpbaPoZOp9Bzp1zDct+4nU1dVlef1Enn7PTFZU02uqTFOGvYGnlU6W9z4y1FNi3bhhkypIlcs1d/5YdLMJf8Go53MK+RH5F2yQqe/lgWSKp475t+f6u+T5m7w1D9rk0HuZQEBo+rjsftd6Uu+QXoFCvuvsx7IrZ02AwrR+4fkNSssTP5ClNqBS8DorhtRjEcdH5vVYyk5XiEQFeDc5pN/hg57mDFHJDcdVmmYSn+53w7KWyVPgD2YUXWh5jsmjv/1L1qYWxfOVbFuRki2fiwyZUi8LJhVenC7kGhZ93QkGvtvl68A2b3tttmxP3BSigKSNB9ZJ6o39cq5Xjcyrn6U+CQAAEK20AgsVk6X2Cvs3Ytu1Yqu0ykgZa5+6mh4Fzm6V9TmfLkeYOcy0ae97/eO+rP9L3tVVyJ1Jusvw/vpJ5TCZH8g672v7ndYmT725R92O6z/3yEudXhjpBmdPSrP9M8gNAHWXYAE/w6n90G1KeJ0VlW5uEDhOcuU3yGZ6hT7onQCdd146SaOb9+BC13vMxMIK0x29hrWclvP2z05jkjY2y56CA/dDpDZBoAUAAFwcSiuwcGqbrEylZPW+c+ZpUf0tPB+JZf1/y6F0kwanGUS41kEM649Jq/rPVCn3VsF3X7aaeXc0hTh8WgcHdPXoTMb5zCvYtnuYPKsLP0ePyeHyWvlZXVTw4cIVrjHQcc0n9frPBK+SKbFeLjw6Y511TlOIPGwOgzKdA8FzjKw6at8vgFMbSDe98B5rmZeT68DWhiivkun+di49lE5q6CQu1DUOUoUmcuzoNWxwf+kVUUOheNTvqx0i8vnheL9L54nQySd1ngj1u0jkCAAAsinJHAul0LazvMa0CcjdjGLC1ZG9QBS1GYUt7Oeuqr1c1r5zyGkOYaqjB6q2ZxVs+uBv8pBNZzSFiGrS4JXvfa9763Sm+2OyqmGzrNqlCsSV0yL70y9knqVk126dF2Cs2tZ2hOvBa6RKFfTibfvCOPkPgrk8AnwBLi8358dHnvwG8ZmgRrAZRYG6Y511SlOIPJwmQ23y0RZPM4ekYjZ5eMU0qSiX79fEyH9gu9Ls3FwJSenkjfOkppdO3pg9qWEcSa9h5rqjzsZfx2i+l0jFlTK0lzqmjuYPK7h5Ikzyxg7nOgIAABe6kgwsGN3ZtnPCC6Y3iRNbMm1YnWDBCOk/wRl2eqPIUgA31VnLpGrG/XZER9jC/vU/yuRQiGLaio+UubqLvoikjVHGv6R7DDgkm9OJ9twAxR3ysE3U2GVsIeaaqVlqF5gEdLpadu5+8XWGel3t203y6ORbEBk+M+Jz+b6zVJmkm+Vy7b97kyEuk3t0zwgxt33B1t8lK3RCSbVvLHnJHzgY/NR6mW0K7Jn95x5PzYbBTz3kJE5ckazHhJYvTqp/M8lDE+mOddYNnGCZt5Cve1lI1hRCJ0d956g+dubYRI1Z7N1sakSUjZ8jr87wBwx0kM9/3J2VM2o38iVcLQW6lwTTI4TuFrIIPUJohV7D3OvOmiL0JpTFqAlO7YNcSRs1N0+EST5JjxAAACCG0g0saKZa6RZ1qzdEhnszdOuuupaslUn6ZQr3qhB/nx1++MlEmbIHzbGfN/PU3VfOlqad9k1t50Oy+4P2zHRzRPYvfUaa9GPcoC9+JZ+saVR35HWZeS55Qd3iJ6EKa7c7vTLM9eQ98BbcHDaJoxJO2ujyz8N04efpLcDQPRMs2yoSyrPwD1t47CSqEHO3yTY/zdOe21soaZOnXtZVuiPyLLhNHcZNM8kadV6FVekkj26+Bf25QCEn73eWKr1P/Fo+lCmyKL197pC+vl4Ris8kQ1T7RqsOLnj2jYXyt0zBXO8/DYekqi7zvtNlZb4uG3NQ89S9ZPhyf/w92MNEPjHXme5u1X3fdGFZLtcutsMFf2c3SPeKMsfuz3Ok3/ZkTSG0Vxr+ouYn4TwL91/l6WHCme42dSxlvtd5jTsY7I1FH8eb5XAgX0pUjaJcdADR/awJmugmT3Y4GNyIwy1wry606UM+2a5hX2yQU+rakfe6U1SjZPgVkj9po80TUbQEygAA4KLwncrKyn/ZvwtWXV0tzc3N8s0339gxPZDpT3yitK/pzBu6rmH6+x/h7ac/Y/BT/7AFvPB76DpmG+mAzu13Jet5ASVokcz+++Ny7am/dmpgB+gQnS9hisiWYgdPAAAAlNKusYAC2HwJ7/+NwAEAwKPApI0AAAAFIrBwQdBPTO+QqrNbZUU6XwIAANpXsm1FinwJAACg0xBY6NGWyT2mPfjjcq1Qvb7H6ONp5x9IhIieQzdrcXI1qOOvjx0JAAAAXITIsQAAAAAAABKjxgIAAAAAAEiMwAIAAAAAAEiMwAIAAAAAAEiMwAIAAAAAAEiMwAIAAAAAAEiMwAIAAAAAAEiMwAIAAAAAAEiMwAIAAAAAAEiMwAIAAAAAAEiMwAIAAAAAAEiMwAIAAAAAAEiMwAIAAAAAAEiMwAIAAAAAAEiMwAIAAAAAAEiMwAIAAAAAAEiMwAIAAAAAAEiMwAIAAAAAAEiMwAIAAAAAAEiMwAIAAAAAAEiMwAIAAAAAAEiMwAIAAAAAAEiMwAIAAAAAAEiMwAIAAAAAAEiMwAIAAAAAAEiMwAIAAAAAAEiMwAIAAAAAAEiMwAIAAAAAAEiMwAIAAAAAAEiMwAIAAAAAAEjsO5WVlf+yfxesurpampub5ZtvvrFjUFQPrpcldSPtgNL4V1n6wGI70BOUyxP3z5Frytvkoz+vkacumyavzxwm0rZHfvfyJ7LRToWL0TB59ufTZLgck1W/3SyHZ8yRn40vFzm6WW5rOGanKcQyuefdO6TKDmlNDdXypxftQGyLZPbfH5dr+9hBaZMPl/1A1q63gxeIwU/9QxZdf1LevGmm7LLjusL4l47I3BF2QEt8TuPcUrDBV8mrd9ZKmR0szrpyt4PI4fV/kUf32tHdaZzdF1w5zykJlt+uxxOJfm/m+4xsy+b7DXYfb7GDSOzeuh/L/Eo7oJTMPltMHdo/4zHrsZ/3/NHDz8c3/lL++J8T5OSbdfJYyo4rNfW/kYa51Wqd7pTn6p+WTXZ0t7HrLHM9ybNcBS//DfLL1CMy4fRqqXv0D3ZcZxsgkxfOk5qzWyT19kE7DoWixkIpe3GmLL2pWr1+LR+eteN6si/PSLv+/0wbN/7w2XjK2cHbT3dsR299/9f2mEkSVNCWy9rbnc8vbThkx6FYdj1g122xz2kX8rlFFxR+/mN5dpwdTqrlE7n7t3+R29Rr1VE77kK0VxXWze9cIx+12XElwRa+RBW29PL9eY+0V06TV2e4UQbLBhV0odfZVuVyzZ3T5F779sVIF2Rfv/8qmW6Hk3qlwVmnZt3bcR1SrGPzQsO93oXvvaflJ3V1Uqdeq5vsuJ6u4koZ2uuc7N9JUKEjCCygE7XJ8TP6/7NynKct8Dmr7znULnJGDjsjgAJcIOcWWzB53fPqWYWUNnnqZaew1jOf/Hbh8g8eJt/XNSO22ye4LcfkU3UOLOufrh5l3DvKedK7yi7PKwd1jYY+MnSwM3xh0TXX/Pt/KNCCHqB45+OfPtsgDQ3q9exP7RhLP/Fu+KP88kY7fLFJPWYK8XWlUFshiR6w/KMm1Ejv88fls1N2BBLpAYGFUTKrvl5mjbaD6Lla2uSE+q+jT6VxAbJPOE6cKqlHjOgpeuC5ZfqMOfL6nbUiu9Y4T1Hta++oi/vp9IVuUEWMgnN5Pxlu/7xg6ZoZujmcbg7i2f9fklp54oIMolxEsp2PKybLglj38+3S3v+mizeIgCKLU44cJcOvEDn3z8/kKzum1I26pV7qF06WAXa4VJR2jgV9Erq1RnpLs2xJrZNg5ZTyu9ZKjefqe/6DZ+STtzbYIfu+NMj2Dd+Tq+6bKL3s+BNrZkvTTjtgzJBBD/9CqvraQSU4r0t+uFKuHrVPdj//TxmypE4G2fHB6QoTbBd+KEubZ9vu+1T29sjx2i4Hvy9L+/GZr8nDi6dIZnVkW66OM231ZLP87nRtpo39lvJ0W+BgG0h9M26ms9rVTfndGwKFUdvGMN32y7bjf8UOuYLzimzvGppXlvauwXa9af7vjrX8ceVtS+zkMRikv+NUrW9a73p1lumsWs49MtTb/jeifWTedWaWqY9ZR8enetuzRm+D4nH27b7v/1qef2K5HRelgBwKJsfJwDzve3KgZDlOnHwGnnXWkWMzpuD5QDcR8a6XTI6Fj2Ss53uD02k5lz/POjLLUbFVlt9+l/gPmfzntGJwzy/ec4oWblsdaPuu+I5Ncx6okk//vEf63alzgzjngfQ+HjxW8h2b9ryigwrZjv9ge/CgzG+wy34m/DuznV/CbaQLFVxf0efFOOvf+Z1R5webh8W77uKejw3Pegme12Muv8PNB+MX3ofysfOx+4rYc2lwPu451hnv/0yh28rMa0ST+mybzPf8hsj9InQN824TZ319v3GNvNN/jtkvzTzS15Xg+su3fiO2bVBoWwd41kkh1zDDzjtpHoL4x6YjOH1w/WeW33sMOOvIXL992yrPuvX8tr2jPN8buS6C+3bMeyUt4T6pC0NTdQFu32pZuT1chNM1FuZVHZGdOwbKaFkuP1lmn2+bNvoDZed//USefs8ZpaaW3zTMk2o7pNas730zL1ktz315kzwyUe1JTaulbvXQdG6AI25OBU+Ohb1j9febj6vf6M8HcMPiP6r5nJTVdatkqG7/n97PIvIGmOXNLJn57iS5AuLMxyz/aDmgfvvxeVmW3/5G2fFcZp1azu+S8LrL3JDkXH4zbf8suRMKWA+h79RC0+fe5iF5ypGuAZMWyLwx56OnufxJXxlS3QTJ/qUPqSPPdb9UqXKhqLJl82WqrHide9YKTqeE5tUuTb9fICe+sINK7LJrzN/W1Uq3xsLoWVKvV9j5/bI6a1BBb7TZst2+jlX8hwy63E7gGl4nk+4bI6d+70yz+4N2GTRnpW+68rv+Q6QhM5/taxql13W/kKt+OMNOYfWdKFcvmSVf23m501WpY7Vg+oZc39Drm3TbJnypvsl/aZmdID594z92tzsP9Vq2VVpH3CFLfPOyBRff962Vin9/TXwPB2xQQTxt1ZcuOynTEixXbP1q5YH+e+S29eoGo7JWXp2rb+Cd9rHDdbVQS1+cnYuvfbqhbvJl/Bx/1UnPDXv6Kcifz8jNdd4bJvdCKeqCbKdRLx3c8FdDVhfduSIvufNRL6e96xz/ExV7Q6ZvJpzpNjvV+/WF13ORjrX8Menldwrwnu+sVMsR+J1amfqO12dK+nt/t6tNhs8M/Ab1W+f/3LlxTM+vvFZ+lp6fvpkJLL/7naG2r3od2QKFmU5vSzX/IrSR7RC9b7+rCrOiCrrpY+AFkYWBYyAOPa+rP8ocIyZnwEiZ++56UbtVmlMoF1XwdqerluUnZ8s9D9oJjJjHZkxOUEEHOTLfuXngQzJb7QN+ennvUOc+O13DIel7vXc6Xfg/YgMQ7rz+Kk363PJ3u2yfnZRWtb0rrjQfiHbqWCCo0MX0PnpnP3nH7rdR+/+9dTeIvOnu1+qlzkX6uAkem9+fWytnzLmpXP2tClh6H9fnrfIqmW7nF+fYnF5TpW5s2+TT/b5bDp9ge/DM+cV5hQpE5nfqc6edxv6GzmlakWlCYH5/LnnWv1PVf5iMCy7nuEongLPFnX/M83EsMZdfX09s4c79zuTt81WhTf12va88YM6lat9SBevgdty4YY+5fgyfpPY/U+hT6+DNwgtwafo8/nO932Z+b2i/0L9z1NHMb3TP2er7fbVnRtwgN59eY7Zhmfr7VXNd0dc7dTzUuMeKLqzagI6d3+92iX87mW2r9mmz7bMI5gQx11N3+dQropCc+xpWPPGPTb0u1LVQB/Hc9+11P+panZfZH9W6dfN0mJcqyk0NX1uHz/Reg5118UDwXimwb686Gt7mofsWM519M4GDb6dk9b5z0nvMPKm/ZZQdG3b8/QMiE+erYmQWpmnEPBmoCsqmir16PbdDZMJ/Nshv6u00Wv+bZNFl70rdm0dEqm6SP96rC+DPyU51KFaP9c69XQZOVwVbUQVZM7/VcqR8gjwSbJKhirTzGh6R0Qfc7w1PpwvqThDEWS4zTdW8cPOOONwmBHXOMmdXZn77TV9mWa73NsoB9fmy0dNFXe08bpDpo3XQ5d104Vwv/7iP3WVXr//aKe2duvw6UaMNTrjfGTV93G3uylOOzBggV36vt8jnh7MGFeSDZzJlxN+flmF33W8nyBg0Z63zANpM94w0tY6QmoeflEvs+yYAUSdyyJ2Peu0/XCZV9/nLpIYpu/aXY3a6qLKrnNomK1NbpFmGyNT6BTK5wo7vZiUZWNCRo/opQ0xEM7ViW0S1lBlyaX/13+Hd6pKb0faaP+rj8EeDvn1rnZxQB2DFuEzQIPS5nQ1qhxDpNWqGZ4dwnFjjmXbnblPdq+yyQAAiL3XDfvPIiCeXi+VPCZ7etTzxA3+iuvV3yeZG9f+IazKFHFXw1TUQmnYHvi/4JPHKgWq6Njn0nueppZrf857lMidN3QYu8pWgDZy61n2avnlUA42bMtH3fuXOBVNdBG+u1BdwTzRd3Xi8pG9wxtdmLoSX9QvfsOsblMBTkeH91fe0NclGz4/fuGFN4CbvmDwauHl5ZYu+kfDeRKkLb6BNrPcG0i1sxF7+WNTFX92Utu/yrCe9rPoGuTKiGmkgwLFxf5P5Df0usyMsfXOUeTJyTPbqmwd3/Y+rFSfjs/dphv1OdcMyP1Ao0E9kMk+i2mRjo14f3Vu9d/zCKdL3bPDp+XJZ+0DwaXoMgWPCzOcdnexxpIz1BA2GDFT7ydmPZZfnaX7oeI17bMaySAbri0vjR76aE7seiK5R4Os548WPpEntFyNvXOQMP/gjubaPrjnhrYWhlksntewzRWbq36m2vzpVpulAypJ0cMVZltaT+mQUk7lxiDqvOK/Im4e8/Ptt1P7/SkPgafXePSawWTZimOeGvVzKzuxJT1dWrm620/u4O784x6Y6pkaEzz8dp582en6HOoB1ATVW1ftOlWf92+Uc7gkia8551buO4p2Pi+neqbVSps6fL0XU+kjC/e1lanFNYTTyab0995ar6cy5O7BvJnB4fZ79InSNbJOntuthf8BH7/PvuOtCLd8Jz/XMzRUxfUatOs+rfdEzv40bNplg3DVTnW1stq3+ncHgWAflvIZ1g/S68O639rofea3Ow90f/TUF1LZqCAZZFF9tEGddeM9nUfv2Kw06SDRMbnYDEFH3LUXw1faVktraLHLF1OxVud97Wt5tqpZxked8VRCdXm2eZnufvm9attwJGEz/ZabwrH7KgdXuE29VgD6wPPN0u/9QTyG7TMp8PRD8QVbtaDfBiOA9ra7pkPneP8henbwwPa+fyvyJZdK+w/M9aprHbGCjU5t3+NZHcLk2ycYD6veUj5bp3mW4cbqMVuvoyMeZWgGblv3E3zuG2Rbq/6px2QM9HVE/XyaUt8vOV3LlXyhgmyv5y5EeuZI2Du4vvdRZ+9ReT830L34ln7z2sh3waN0hu5//lXxrBjbIiS3q3qfvGOmbDga8LE3p9x1tG3bI+UCZ1NGuyq6Z2g7f7t1nprs0dM44KOtSq2X/+d5Sc2tppA0oucCCriY1b0xvad6aiqwm5dggX59W/+mITkTUyKd1n7T6gg2N8rUOGlR42w0E2fmHNMppXxOKhGb+m4xU12B/QaK4mk9mLhaGLQBU1R0JPC0NsE8gr138j4gnnA590nGjheFXjipJ2QRusKPa2TtP+MI3Ik5vAp7EVqatfv6nWIdPq+/QTzMKfYpu2w5mlMvQfvbPkEwio9jLH4d9khd62ml/ezBgEMrMrG8ifxt84tkmZ760f1rmqYy9gXFuBCMSM0XdpCrBbaiDNvqpSTFvTgqzTMaqQ75133933tNzc+z4meNQFcIXuU/4o8Q9NmNZLi068VCoxlKUQ/Jxjp4zxl+tm3mclJZgQMIEINT18nIdgGgUvQs7f9tASjq4MkIq/Hnp8ks/3Yh+JeoKLFEB3k1G5ud7whqVeLTQY7OYQsujCuLqOA9Vee9qede/DcRWVnoCrKpAqwo07Y3HwgUmr9D5uJhiLkNcumabp2r/8En22mOeHLtJO52aYenq656grX5ynKxnhIQFeDezv9fRo55zePiaoZffBM1802n2eOrUQn7ua1jXcwOI4fNEKLgWS2H7Y87aIFnn5SRVTgeJsty3FMWBdZJ6Y7+c61Uj8+pnSVTdhT+s3ikDAwVGwxaG278Mrlm38Ox5iNF2QDZ67klPnshedPUWrrVNJ06qf8ukn++JSLucCXztHx5V1ye3GUD9OKlW0xx4P/A9h/XxFJxXcQWXP2jTsnfliFqG0ddn1ugN149WY47I3jzX1sNfhs4GRfPTsdWh7RRSwDaPV47MyJm0seW0KdBH1ioIOH9wgy9o4H42HAzw+OKf4fOsFiq75vKVbFuRki2fq3uwKfWyYFL3Zl0orcBCxWSpvcL+nUfba07VEBNcWLLWvEJNF+LSVV3sPNyXN3dD0dlaAac+s8MdpqtSH5ElnpevTbSxWP5ku3jTBRhnuojggX4Sq6s7q4vetYvd6fzVu7uDqWGgLobzPdmjzcvXJlQxhWanaqauju9MF06GZgq69mn7z9x5RVRNNNWa3fftvPy7hn2y43tq7zy19N5cxV5+xdxABqZ71VOFcboprXl/n33lao9aDDl6cAhmNi85tlZA6xe58i8URjc58B5zS3x5SRy6doLptlIHF9zpQgX+mMdmTLpLx+Xvq7tDHVyw3/nwU7YWQqHOnpRm+2dQ34E6OOsEMpy/dfDmkHyovtsNNGjFXOedxhbuvMdTrjbU2XTbsdnDOQUtz9NxE6A5lnk6buU/H5eqYfKsPtfrp8i6Orl77dHXHFvLTheKp8+4wdYM01XObXNA02zEBrA7sfu+0HUn0T7bR8cOnOYv3nmpV5Lj6YKQY5sVVJtI7QM6t1dREhzbeZlmkr7t5M3d0JWGSG1UYUhX35cJMj9LTbXsQYKBMrQYNQNMMKAwNwwaqP51miX4atzZvA7dy6nFkGkO4TSDaN+xSr3jpfMY+Jff5KgoAXm3eQHlSIeTtLF5T5ZaDbp2wtIGU9O96j63jPiCusono/P1ecuakzw5+4ql95iJkYG6rlJagQXTXsRpf6WjLrnaX2nfvrXAtlPRbVkkOi9CPm4ijcMN6TYvTrsX+35niNMuOTbbPltX8U63g7YFixBPH/06D4NahuiaCbqgY6czffn7244XvSlEDKaGgX6yZdv4+V/BqqLOk7r0DZwp0EdkWk/3d27bDAbbQZs8DE4Srcx36aCFn1OY0DeA7sU5nJSqkOU3T1kC03ifOjq1HNybz/Ar1Pa6C5R8Nn5bK8Bb4O0IJ4+BbiZgj5P0MRXhxZnpad40TZSiahPEPTbjMQEN851OwKLv9Y8nDy5k4WviUDFMBuvgTeNHsvaLk9J3zL85w4UGUDulKUQeOqigC1Fuoc++krQjjnds2qe33qZSFzvb9aLbHMLUkAo89Y57Pi5JtiCXfoqsrj06T4G+5rw6SV8/nNpg/iZ6Og+EDZLPvcF0VdlZ51kdVJhfGdhvE+WSsN0IB46l9MvWHnCuh55A0kWqoCCBrZ1TlKZNbq8N3twh3ldkE50i87V/z/ZkeZM8vfFIIBdCHCfleKE1Z6MM10G/cA2FXJxaDjqhYLjGXeJad0X0h4+PqGuPbQ5hagEEa1fY5Ig68aNnuZ/TzUJKmt3mBZYjB0yqlSHSLIcP2BGRXpYmt3y4xtzESU2C4ILpBOC6MpOEMVPe1EGLjhogkxc6SVF1LY1UNydyLLmmEFqs9lc+G+TE8za4kLOJg3L5DKnoq07o+532MZeMG2PazzRtiGgv01ncqs9XFyEh4oPXmIzuTe8U2B5b10ywBZicAQ5dKDLBhYGqoOCMKnpTiBgSNRnQdPDABBdyf1YX5k1BIl1V063G6M2dEMVtUx24QAcuzImXP0pXVKsOMAnWogpC5sli7iR0pcFW2dcFXjsmOadZhTSuLbjXBl2bwAQXdEHcGRWW79g0iV+PZBIo5qQDFja4YGoVxLdrt65pMVbGB4Mb5pyTycPiNrsacuNYdW1XP043ldCfM8se0ZQil85oCpGHm0gxkySwA2Iem07Cwpi5AYpZoCiErrqvA6VdknTV1vwyzSGcatr+qtxxz8fF5K8W7jJt0+3fhfJuQyfvgJp/ub5+7MkEUXy5aNw8NuXqO8M1OIrDWd9yNJM/JLl4TR6cGiqZQFI+TtPFLs7Rk67FlKP715zHps0t5Gvi44jVxMBcW73s/ujL+5JU9L4dFHnfYvMudITb/l0+35K//XtqrxwJtu23iQjDAQc3EeHewBP4ZEwV/UKDFF3Q5KFDUqtkZ5vTHMI0gwg2QTBNOUSObMyV76C4TDOL4PFt8i7Yv7UCt3m8cuSA7Ekbs9n5kA0uDJZL8zSNcMqXbhP6GdJ3lFrO1h3SXIwm9Wm6K815UqNzRLyRknU5AyRdoyQDC0bO9lf3S5Uv06ZiAwbnT3meooXMkEF1E6WXZ8N++6W+knoTZ+iuJzu5KYQslvW2qrL/KeIyuafQ3hdsu25vkEI/TQ01hVCFkeATy8GqIBB8oqiTrwXbeWdta92VTDI1XcU4x0Ve0U+1glnQw/kBdDvW4HzszVW62mLEU0VzoxGsehvvAh13+WNp+UTeOaprSCTJhp6Qu/xzvYUMt3pvMW5IO5tNrqibJPiOsUUy+6VCe19wghS+5Ki6sB9qCqF7VQg2I7JBCW9PCTGPTZdzPCpRhX59DgkGHGxOl4KSKGov/k0+PFsu1/p6p1Dz111seoIqLV+cNOt17vVigw2L5eNG9bk6nSwze1OKUuHcPHsL+YF27oWIe2zu3WwCmVE9T9xbFzxH2HNMwUleO8Y5bypdVbPC5GtR5+E6VaAKBRDino+LyS0YZpLs6evL/H5tplBcELtfZNuG7ngnGaUneZ5PtvEd5exfvgJwIB9EIcxvcJt5ZKPWh5PA0F9LUJs+Y1ro2HGO0c76/dGcwr+Wq2ZF7mPT6eFjmMz3/ka13z5gHkZkgknu78s0BVLrRV9bfTLNLv3rVp2v6goN/rmBvGm5e6Uyx6S67tukm+aar/YLadM7TDJu+3eTVO/tOMU5nURxoNw0XTcxcDk1GaRqnq8W2w2LFzlJANPJGjug/jem68Mjbz5WWJDCJjqsnts5tXc7zslJUDZ6vsxXBfJQAME2//AW4HU3kJ3ZFGLT+wfUd1bLTYtt7gfdNebcgdLu280SbPN8eTxGT3QK5FFJGy1dyyDY8195jb6Ja5Gvc+VAuPxJGXldmZz/oEEdbZrN3edN5mia4XegKYTubrJ+qqlxsSW1UrZF5YjoBt+prKz8l/27YNXV1dLc3CzffPONHdMZdDRmqsjWQCTGbcJgB7VgH59Ol5R2wKWbPASyebrVU1x6Pqdr1Gf7ZzJ8OtO0RPZdWvbBM/LJW56MoXHpwkiOfvCd6tZ2IMCXzT0wH90X/Qp5yHYTl5lfqD/6LP3uh743lEm/eEwVTLc/dU+3jY/u1Tf3tlslT/Ilp8qmHXAFmh2EpgllUdZ0N1D+m9Jg39Lmgu3rL1o3ZTgq49TnfH1L6xvcyJswXbXU38whzvLH5VYN9vH9Vvsb88zfmY/uejNf9vHg+ohYZ75taMd1CadJUF+17z//RI42/bY71UwAQDdn8PSYEHrfw3cc2CZI5m9Fv/d/RBaqz7Z6j83gdIo+PoPLGPfYNNzjPdtxGfEbfOcLxfk+//kheh3q4Mjjcq0nbhZafvf7vMvjLmOo5xuXne+pbO8Xh+/8Yse5x6vu593dR4PHkt5/TR/w7md9nwmcmyL2+fzHphVRgIg+dsLnq8x00efKoMhlssLnPsVdtqjlznrOUzzTx13/Lvf8GLk8Mc/HkedYK73OYi6/5pufOZeK2RYSuZ1yCy6b+Z2nau0+oH/PZnkltGx6/B4Zan979LqJ5mxz3VWgN3Gusy/5rmHB/UuvgzdFHgju87oLSXUt8V8zoq4z4f1VC+3bEdsh2+8L7b+e7eRfHuftsOhlcth1b4eM9LJFvOcTnq//d+Z73+H/fZltrrvP9K2P0DoL3GfY94PHV65j0X8cRM/PmcZ5b2ONWtYRTf55xWH73T8fvJ/30IXYeVVHZHWdp0CvC5omR4FuYuCpFasK/w1z9fN1l/9zZl66C0OdWNFOq3t0eCx1g/wy9YhMEPue2GHf6THwXYpuBvzIRAmNj+JM61+zopsXuEkeY3LWhx0IcH6L+sOun5PusOX7/XackV6fgfXsCqzX9h3PyXJ1zX5k4sn09JG/z9LTuz03xFp+zfedznKJ/qzu/jPdU4eSZ5tHiy5H6iDX1D77ZXWeWjOhsqSv9wfNKQsGAwTBMqnz4PoXUpW+OWtUZcrd0j9QjjTf5yl/GrbM2+6ZZ9zl72o9ILCQXOTGAYrJveiGCu/uTXC+mxIUR8zAAkpE1wQWAAAA/LI8tE6kgw+ZLzCl2xQC6AlMRm+J6NrJVt0FAAAAUBLiJW1EEgQWgI6wfX0PDyahGjfNqfIa6s8bAAAAQHcwyR27ufeECxWBBaAjWj6Ru3W3XMF+u22b6yS5E5Cc7lbR9JigXsEkpOh+On+Ls338eRsAAADQs13QORYAAAAAAEDnosYCAAAAAABIjMACAAAAAABIrENNIQAAAAAAwMWNGgsAAAAAACAxAgsAAAAAACAxAgsAAAAAACCx7g0sjJ4l9fULZHKFHQYAAAAAAD1KtwYWRlUOEfl8j2w7ZUcAAAAAAIAepfsCCxWTpfYKkeajB+0IAAAAAADQ03ROYKFisizI08RhwIih0lua5fABO6JAo26pl/qFk2WAHQYAAAAAAF2v+IEFnTfh1hrpff64fJa1icMomTimt5zbt0P89RXul6ola6VqgsglP1wpk9TfzusFKbdTuA7u3C/netXIvPpZam4AAAAAAKA7FDWwMGDSAqmfovMmbJHUim3ylR0fMnq4DJFzcrwxeopBc9bK1aP2ye6ls2X70mekqXWE1Dz8pFxi3zdObZOVqS3SrOY0lQSQAAAAAAB0i6IFFnTThHljekvz1pSk3s6dNyFv0sbWHbL7+V/Jt2Zgg5zY0ijSd4z0vdyM8Dgo61KrZf/53lJza73MGm1HAwAAAACALlGEwMIAmbywXqZecU72v5GSdflyJsRI2nj+4AYbVLBaTst5KZNLB9thn69k24qUbPlcZMiUelkwiawLAAAAAAB0lY4HFkZPlJpe9u8YTNLG8/tlR8Kkjfn0HjORnAsAAAAAAHSRjgcWDqyTVErXGHCaI+SuMWCTNv7zs+z5Fwrm1pgQpxlGal0gISQAAAAAAOgsRcuxcPDtlKzed056j5kn9bdkqTOQJ2ljNpeMGyO9pFFO77Qj0kbJrPp5UtMrZjMMAAAAAABQVEULLGhfbV8pqa3NIldMlfqFk8Vfd2GATK7Nk7QxyuVPysjryuT8Bw3SZkcZFZNlQf1UGSLNsiW1srB5AgAAAACAoihqYMHQTSPe2C/neg2VK71dQFZcKUN75U7a6Op13S9k0pK1zuu+idK+ZrZ88tYG+65j1IQak6thNU0fAAAAAADoNt+prKz8l/27Uw2YtEDmfe+4rF6xLUd+hfulakmdlH3wTCiQAAAAAAAASk/xayxE6oykjQAAAAAAoLt1UWDhoKxLpWTldsIKAAAAAABcSLoosAAAAAAAAC5EXZZjAQAAAAAAXHiosQAAAAAAABIjsAAAAAAAABIjsAAAAAAAABIjsAAAAAAAABIjsAAAAAAAABIjsAAAAAAAABIjsAAAAAAAABIjsAAAAAAAABIjsAAAAAAAABIjsAAAAAAAABIjsAAAAAAAABIjsAAAAAAAABIjsAAAAAAAABIjsAAAAAAAABIjsAAAAAAAABIjsAAAAAAAABIjsAAAAAAAABIjsAAAAAAAABIjsAAAAAAAABIS+f+ok6ZPWQz0pQAAAABJRU5ErkJggg==;" vertex="1" parent="24">
                    <mxGeometry x="135" y="427" width="1046" height="150" as="geometry"/>
                </mxCell>
                <mxCell id="25" value="" style="rounded=0;whiteSpace=wrap;html=1;strokeColor=default;strokeWidth=2;fontSize=37;fillColor=none;" vertex="1" parent="24">
                    <mxGeometry width="1267" height="1294" as="geometry"/>
                </mxCell>
                <mxCell id="26" value="EJEMPLO 2" style="rounded=1;whiteSpace=wrap;html=1;fillColor=none;fontColor=#ffffff;strokeColor=none;strokeWidth=2;imageAspect=0;recursiveResize=1;expand=1;fontSize=37;" vertex="1" parent="24">
                    <mxGeometry x="59" y="76.15420560747663" width="263" height="42.50467289719626" as="geometry"/>
                </mxCell>
                <mxCell id="27" value="" style="shape=image;verticalLabelPosition=bottom;labelBackgroundColor=default;verticalAlign=top;aspect=fixed;imageAspect=0;image=data:image/png,iVBORw0KGgoAAAANSUhEUgAAAagAAAC5CAYAAAB9T6tKAAAAAXNSR0IArs4c6QAAAARnQU1BAACxjwv8YQUAAAAJcEhZcwAADsMAAA7DAcdvqGQAAABhaVRYdFNuaXBNZXRhZGF0YQAAAAAAeyJjbGlwUG9pbnRzIjpbeyJ4IjowLCJ5IjowfSx7IngiOjQyNCwieSI6MH0seyJ4Ijo0MjQsInkiOjE4NX0seyJ4IjowLCJ5IjoxODV9XX0HiGm/AAAqpElEQVR4Xu2dC3RU1b3/v7b9C4WQQEwBiZiJCbG8BORtDf4xhMIK/7owouvqH6m3PK6AbW0rTRFcLkX+lGotFWkheC14tctidNlLFlxCpIKVt8EiSQ2JBJUQYoxkCBRyb/W/9zn7zJxz5pGZyUxyJvP9rHWSc/bZc16B/Z3fY5/fVRkZGV/BRGZmJs6ePYvLly+rFkIIIaTz+Zr6TQghhDgKChQhhBBHQoEihBDiSChQhBBCHAkFihBCiCOhQBFCCHEkFChCCCGOhAJFCCHEkVCgCCGEOBIKFCGEEEdCgSKEEOJIKFCEEEIcCV8W28mM2XQKs7LUhqCuJBMvbVAbhDiReQ9jVIFLbQjqSvH+sl1qIwiD1qNsIvDaG0uxUTV5GYxnfnIrbsAnePPX7+APqjUykrFifgHGJgMflf0RPz2ummOC91w6bhx9pRSrGtRmTInmMwuHBfjnjx/Ff/cVq+ffRY/f3Iur9B0xhxZUiEhhWfn6yxiotiOlYmEmnswTy5p3cV61ERIe05H+p3UYsixHbceYLc/i/bt/JJbnccat2tqjzxN4Y2IWWqtK/IhTPOPGqs1/xOxfi6XsE9XWvflyrhAnCGF63IWenShOEgqUQBOfctMSBSEi0SNp7TqMEgOyz7L5flyt+nQlVy970nZtDyNJ7UtM5uN308Yj6UwJZv99j2qz04IvpNi5v8BHekMH8IpGbK2nriaazyxUfokvs4Bv7OtcYTJIcIFag7lCkGZl1WC7tGqM5XdA/qoFqg9xBO6jqNK+xZuW+VvRpnZ3DTlI27wOQ8cBZ9abr+0EUtZOV30Sj9u/PQPZqMVrhzarFhK3DBoMSwyok4l9DCr/ZTxUNAI1a0ahYY4p/tLyLorvvA8W1+3iMqwszFYbEikc+ahQW1r8Bq+iuHEmFkxOBmpfxZPbBovj3wLpHrXGcxZg5uvLMS5FbYpvWUfENewoU5sCPR5kPYcF7dr1Y/vFfA/atffXzmG5T9s9eFDHPu+QGFSP776G0TmVOPbcx7h2ZSEGqPbWQ2tx4r/s34Lnw2XqI/4QqHpyqXjCgpvXY2LBQNS9cBfO1Ws7LSTftwNDUw+L8zyGK6qtPaQFlZUqBCoEQdL6msIll448j5Nrq9WWbu0MHdeM2rtL0XPzEqQbsQQpgOr42jFQiqqmXNFXdJAxl+0DMWTpWPQS+5tKf4QzW4xjSXFaiaa92lECM+V+z+d16sQ1PItWtaXvH4IvxLEuzzLdg+m69PN5gh8+eO9VCqe4t2brdUvsz0PS3jPzYjpuwBiUsJ5mF2Jg1dog1lP7fL/wX3AH3sHsvybjP+69Cb1VuzXGFGY8aOSteCN/sNoQnBbHL7G66aZMLcDDY0zP2E8fD9rxUgKf036+ALGjsM7Z2Qx6Bf+98BZc9Z8ufOOoautEOsmCSsa4olO4tXG1slJeRV3KLViwaY3aL5AD9uijXismbzWOtGRjVnkZxqguGmkzMaf/DjxZUgNkzcRDD0rxk30B12jjeNIyEuLUJARMHa94P8Q1vI+Z+aqL6DNCikjtUf/iJCm7D8+pz2+vFdtSkNS2ttgFVt2nFFG9j7qHeHEZ9h2P0Stn4B8vzMTBJ8VSWoukCcvgulntlwx6AsOFOPUWwqX1EUvVR1kYunK9uHtBQ7MYdHvjm8FuuPnjkMUpdPS4jCZkhiWzXvyPGrcEo3ysGRey/rQE/aqfVxZPKZqSx2KouV9qLjLS9uH90jrRPRdD7pfiocdg0obLfjlIzhF37D4JdzvipLkAhUhcEsJmWFm1dfIankTaFNVJIxnpS9fh2ib/19W2dqW3XWxLITGOJxcfUXEViPPK61Z9xL30Es8jfZ7aH9YzC5FBo4X1dBGVZyIXJw8ZYoC/tx92y3iPWJ6tcOOG/AKs8PzbCj0eJAVPioUUOK2/XKoz8MxI1UETu38RQtEiRMTo8w4+ktcwfzgsf6ZQGDgc/5Fz2nuuX5fiqHsw7vjJrfi+6iLRxQlC5Ix+4j6bbzJdV2LTeS4+Ye08t6JYbRThAzngpw32DtxSDBYWqQ1JMXbsFiIk/rmPWKy3aAiLqGab0U8MEJXrvVaROt7AVTPFECQsF9PxGlasF2IhBGSOErHFY0Uf8T32mPmcHef8fiHCnvMWo6JSjGgp/XGtaokeP8BvS0tRGmh57geqX3icKzVZPu8dwznxq/e3purbguSp45F0/jBqTFaV++US0S8Lg78r+tV/LIYnL9Iym2iIF6bim6nCKmuSf/zocvWyXKRJq8RsZe3ditNHxPMXAmMVAt0K8g7ou9AidAipA70xLXHBX2w3rASxUf2S10qS/aZMQj/RfKn6QDtW3XR8S1g9Ukyk1WXQukyKjBCkWTYhENZa0OsKC2mlmay7LSc0Yes1QE+uCPeZhcKi68S3vguVKL+gGjqEtIi8FsfeqjrxbysZ/b6lGkJFiMW0DD8Zfsff8W6PvElYYtbzSYvnp1L4km/CHeEKRsMJ/F+LFSTE9KDcHoyRpmPdkCr+EbnrsNf0TXfvntJuHksLnU4TqIiE4GSjb6ZbyweoMLnpztcbomewAGOGiT+6j2VUjAb5v9MsijHAfj0NK0YJSyqAC7FDvIAfFhSgINDy0AuqXzjUovk9teqX+Ui9QQyu1XtsFlAt/iH+UElpmkmqrRui1iNNOmeykKpZYVn4ZkB/aTtIS8KSiLDOlMVmWDOf+4hF24GTuCQGtR6ZqkHDjSun1KqidZmwHswDtc0yunTOn8srBOYNFyLg7/P+xafpRAjp26Hi8zx24YzH0gr3mYXCVFwvDgn3x3hLb+gYtoE7UqYMdQmb/hMcDzLofz9HuuJa8Kn9fMdPawkJA9LkjXWQz76wfHmTfNQsvgwIAXw4EiutE/hq1Aj8U3zZ/1oXuPcknWdBhYBPNl2w+E9AspAm405Z91iPJRbz/CMSAYOu12IB0u03ceUO07IMLs8fag/+0WyIlRS0WtQdumixwi5+FoH7x0+ShI9Lq7nBZ7A1MKyGrsFXED0kX9O1mYiOfWbRQ7dSQsh8C9Knd6onmB0ymlvxJ6bFFEszkNaS5p6UImX0KzTHrbqGr2b+DZcfr8P/4Dn0fHxalwmFYwRKT1iQiQymGE9Ec4Vq0dQif3njT5bFiBsp68wbt4o3YuPiC4py38nECSP+ZFleNmVtpV6PHlLQPjqGc581IClnqr4tjvCPKHwrDpeILaBAiK/2l8SvXjmTOiYwfiwYpxD1Z9ZF6FZKPwjjP2IuNstBJXS0JI8M6TL0xpZmv/I3HwtK4/g7nj5vnhbbMu7VxSJ11Y6bhDC58A08JIRqN75U7Z2NQwTKSFjYYcmyi4wQXXllf0GN/DeXNdaahBGAs42xiiVFSixcfO1hduUF5kqT/t+wx8hhgIw3yVhW32Hoq/1BGvAPP9l9HaMa7moZNxnuM//o6klD0At1aDHFf6KDctElD0FyMN+MFvdJRr9JdmtkOlJcocSw/FGHK+J2e6WZUu/CJhbPbA8+FodE8vW4XW9wBHu1b6zW2I+dP1RLK8aFKfZBY2SGEDY3/l4lbyxUxLkyxK/Tfwv7DRN/KFEi1S85cpffA0+jpKQEJS8+ilzVFClXvf8Bvo5sfDlWNXQyDhEoZfWYxUKmbUfk4gMqtgnLy54l6EMxdvxOWmh+MgXzX8Zc2zyohvpG8TMbtyb0/Kg9OPdXITg3FGK4TIgIwBVhMcmMwKEThD4dl+68zWj+qDdcBTLBojkGGXwyw22fEAIXsszZZ1PuR4aWoFDqTeeOIp5Eh6X2bLzpSPdcxy58dsSNXuPmWvokrS3QEhTO2t2UIVGNy83iV4SJDAaxeGYbPxX/PvoMQ14f1eAEjv8NR4W+WDMABSNv9WbLaX2SMXaWORY0GM/INPGwhUZNqM3I8GbsyZRzHxefzBy0ZvV5xE0coL2ZC4HIHdBfX0m+GXc8oK/GKw4RKCEWd74q/rtKsVAxo2mNKI70dUBaerg4np841FxzRqDWz0hnN/V7UOzyZBwqNuSjeL8bfScv9/YLO31cnxisfVaJr6tQbdtF0qm8txQHXzgM+MShXsOAQaqPlmouOF+J88paclepzL2YpJhLZAKAEAyZWm0kUqjUbp9YVdTQkw5q6/T0cG8Cx3C0mOYJyfTwqiOw9NFTu03zoMKkdZlMebeeN/xXH4X2zLxv8liizxsz9femrCvqj6FGDMPD0gN/gYkaMpXbiNto842EwNyrti1JB3o6+punTfvlknPalC0n+5TiKEyxoJ/cigEVpdY5SSGdUx7rHXwkxOYOo+/EL/Csj4tP9juNkUYfbfFzzjDZt6YcgUKe8QZfFksIiSq3f/s1/GIocGj3XXg0KunmJFzmPVOC77ku4r3f3o+n3laNkZAYE3UJIYnCW3/fqVlREyY+4ahYVMLwwNNCnICLh4s7Jk6S+k+65B18BhQoQkiU2YwHdx9Ga5/x+MWE+aqNxJ55eFomR8zKxKnthbh/zT7V3hFqcNV54H9yX+mSd/LRxUcIiQ1B60GR+KHr6kFRoAghhDgSuvgIIYQ4EgoUIYQQRxJTgZo9ezbS0uSrMgkhhJDwoAVFCCHEkVCgCCGEOBIKFCGEEEdCgepk7DWvLO8G9LAAM1839zOXqg8X/f1/D7X3kltZct9zPrHES5l6Qki3hQLVyVQsVHWpgr4IV748V/UrkWXvOwHtxbn6ObdHvyJ7h7GWjieEJAIUqHbwWDz20h2yHEiHLBtCCCHBoECFhBvn02ZSjAghpBOJM4HS4ykybjNw1fveeInfWkqm2kva4mvtaNaRtIxs8RffuFAjaiqB7NsCx3H067FfR4jxn46gWXLeaw9WV6r9ZxYq9mcb+Fi6BRqppTkfLlVvavQEWeotC0MtNajMLj+9r1ZI8eb1pj474LpZdREk3yfaHnoCPdS2xqAnMNzWT8N2nIn38cWnhHQmcWlBySJ/C/rv0GM0RsFBc1BfG7TvQd/9q1WfTBTvB8YV+REfWdSwqD/e8fRzi+P7DqgNb38ATL67A4N6DJDCOvqo5x49z8KfYAxbigXDPkCxuV8kiRCamFuf7fbaAOcUQqaV8hcyEkzcA7MZdU/OxEGxHDskS73Vokpt68tSYdtaSZKFFAvg6Sc/N6DAVEwxRLSYV8FA1L1gnKsE524opEgR0onEp4uv5V0ULyxSG8WoqBTDVEp/XKttL8DMadliLHsVz5mq4jasWC8GZSFu0+yDshtH1uSjQm1JITovBtS0IarBoOw+vCMG4hF+s+66CJnY4HkOkmLs2C2TKnyvsy+EON15H/TK1apfyi3ID/N+xsy5BX3F899merYVC/VqyL7l8IvwgZZw4UbN27YKxbHi/GEcMwnXleOVaEVvfDMsJZ6Pa4XF1nroeZxTFYE1sSyV5e5nhC12hJDIiEuBOl/5FzXQ+iH/fyM7RfRptKei2YVM0fIBKsrUejtUbHsXfX0EzmGcbPSbHejzzFS/voPCsWx0i8j3+deiSYh/3/6auWRBz1ochR0hPuMOYy8pX/8YTggLqO49tR0KN4/GAFxE0/E9qkGhlbIPV+wIIZESnxZUCJyvD/SNvT8GRprsUPYX1CB8qyOW2OdVrSwSFo7aF5SyT4KkuQcgf7B27L6Tl1vPWb4c48SXgu5Cj29JBeoN1w9M8Se5/GA8kvQuhJBOoNsKVGAa0RDxt3ndNeYabUs57yKkOM3Kki5KIwYllqDzq0wosQks5H5QonbeFH+yLBZ3Y/xy5TNpH140xZ+sS1jWGCEkYrqfQEkrR8aafERkAcYMSwZqj3riTRGx4SjqssaGliyxeCxcajX6qASE2h0Ruc8G3jZCCJQbTSdVQ0gEduUFomNZfF500RiIb8Yg/tNj5DCrZRSuK++2R7FVltoueRrzVBMhpON0QwtKJQBk3WPJ2Bu4ainGpQhrY1tHv+UXoWx/f9w6rb/a1mmobxQ/TckJMpOwMFttxAJdLGAWS3nOUFx8+S9jzuRkYQmtD1PcvM82tNT5jmbxmVCi4ZrasSy6K00XhcIOQ18ldDJbT09hN1H/GD75CKFn/93QT1yZJBN5RbnaGiGk43RPF9+GfO0VQTId3YiTLJjciO1RCtZrKecptpfuiHPqKerqnIUQ55Pp3Gq/hmn+kBIS7zWa0rTN87I0kUvWUuS1bU9quBCLO/XsuVlG32mNKPZx8emZdJa4kTj3+ZJMS5ajeY7ULCkqKbdggdq2iJF8tuIc8IlD+bOSopjFJ5MdtCy6QlNcKPxXH135r7tQ9ZE3vjQ6pxLHZAq52m/gflmmqIu/jz0OZZ9DJXnxTbxnz3cnhHSYqzIyMr5S6xqZmZk4e/YsLl++rFoiRxYs3LdvH5qamlQLId2T3KKt+PH43ji1vRA/e1E1EkI6RAImSRASZW57FAuEOKHuzxQnQqIIBYqQiMnFoy+WoOSHNwOHf4PCn25R7YSQaEAXHyGEEEdCC4oQQogjoUARQghxJBQoQgghjoQCRQghxJFQoAghhDgSChQhhBBHQoEihBDiSBJboLTS8Kb3yW0KVkZjAWa+rvfzKRsfCPVOvZD7JyRXsHvnadSZlt2L1C5CSEKT2AIlX3yq1TKyv9TVGWilKjwvh+3euA9cB9eMDG2ZtlE1EkISGrr4Qka+PVwvzPfSBtVECCEkZlCgCCGEOJK4ehefXuK8Btvz8m1VcWWdpXvgqn3VW3Zcxn8sxftkafRA9aBkfGk5xjWZPu9B7UtRm0GPo65DbRnUlVitLv0+1IYk6HXbaHkXxXfeB1lfVsOnv/35mO5t22BLX1m63VwTyvf6g9yrcV7ztUeEjEE1oP+B63DT419XbYQQEmcWVMWxGvHTVLXWQCutbq6WKwbaB4FtWnxJX7bXyqJ/kZQe97r2ZBHEgGgJEfegrxj0jXPKwn7W4oF6YcARx9R+o0/WPd4EjbL78Jzat10W+5OCZPSVi0mctCKDQiRk8UFj//ZaWcDQz33KcxSNQM0a1Vfciyxi6E3gMIm8ca68HUh70H8MTC8ZLwi1/D0hhIRJfLn4NhxFnfjlGm3NthszOlsM5B+gwvNNvwgvma0MQcU2KRZRKD0egDFzhDUhxGSbxSLxpWHFKGsMSwjSO1KIwh7o1yBfK9u+2nK8ioWyyq4Q4zn2jERpWZmsIfUs+w5SzyN/sCY4dcfM1pDvczSQVYU18a09arNmCSEkOsRZDKoIZfvdtsF8DUZkAecr/+J3IPVQ9omPNRM9QryGAJxtjKBeuGY1inPW2wVRlVlPG2y1fFoacVat6gjxEVaSx8Wnno8sQR9SWrxh6XXIvUcIIYGJuyQJ/Zu7yc2nDdQ1eMdmuWjuL/McJz+xoa5ButLM13UKC4QlFBluNJ1Uq3ZS+uNatRoaUrD0dHspUvq1ReISJYSQ6BB/WXxlf0GNHESVm09z79ncTFKc5KAvkxO88RTp+upqVJzHFlcqllZhtPGxmELBFG/T4meRxu0IIaTjxJ9AyUF0d41y8+muNWvcZAHGDBMWiRCBsk6br1SLJiGaffubU/NUXEqtayi3XN1u/3EdO5rrL5AlpMWQ/MXUOuZu9CBdeEqk0oaoNjNaUoiwsoK+fYMQQiInDgVKoA3O2RixSQz4PkJUjAaZ1Z4yAmOMb/4qwy52Lr5iVFTK2NhMj7UhrbhZaW5r3Otkox7nMSV5yJTzQC6+hvpG8TMbt67yl9ihx+P6Tl5qsXDGbJL36evybJfFZXjIdh49U8+/G5FZfISQWBNX86DMGHOJfOfySOxzl2QG21GMUGngRn+f+UgmPHOXfOYZmZCuOlOWm+V42vwgaC49mOdByff/FWarDf36t2GpEKlGP/O7vO5KD7Zztrff8yxgb/fF51g+c6pMcB4UISTGxK1Ake4CBYoQ4p/4dPERQgjp9lCgCCGEOBIKFHEEyZM+ZT0oQogFChTpYnpgmqoDxXpQhBAzFChCCCGOJG4ESmYX9uzZU20RQgjp7tCCIoQQ4kgoUIQQQhwJBYoQQogjoUBFiyn3Y8if1mGUsWy+H1erXf5IWqv3G7IsR7W0Rw7SNovPrJ2utoljyL8Xb5b/CuXlS/FvqqlTUeffGEodL0LiCApUtNi7FSfv/hHeF0tt19f18OHqZU8KQXwYSWqbEEKcToIK1HSkB7NylDUUunUTPq3LdDE7ubZatZC4pewV3JH3CPLy1uP3qokQ0nESVKB2oUVaOclDkDxFbzFz9aQh6AU3vjhA8SCEkK4ibt5mHs3r0pj3MEYVuHDpyPM2K0bGepYgHUdRNX8r2sxtpkoUvp/zIuNLWanmz3vR9pkKUzWV/ghntqgNG/a+GnWleH/ZLrUhUPfhpQ61dz+LVm1dWooFSNPW/WHuK7H3d+PM+pVo2qs2BdJVOHRcs/hcKXqan4nb937t1x/smQUmG6tfX4SJTTuRt20A3iwa43FTtu7fiDtW1KgtnbxVj2H55D5qy38fLWZjOo7OBRxc8wSWl8n1PGwsn4GBts/qx27GNsNSsh+npQKr73wF5WrTwPu5nbhe3otRBsZP/5CuX12ft2iLTk3JI1jUaUU6CYk9iRuD2nICUjZ75UyyuvmmTEI/Meheqj7gGWyT1s4FtuouOW0prUOvcUsicgEarr331x/FJdXmi54QoYmccc67n8cZe2V46YocfsJ7XVofF7I8saZdOKP2VR2RH5aCZPSVi0mcpNAJceolRMTYX3UESF+6DunzVB8P8hxL0K/a6FuKpuSxGGpK4NDFyXq+s2lzkebHYg2JrBkoL8rGiTXSlSaWktNImrzIkhjwb5t+pYRA9VlTAYg+b64yDeWLl4rjjEGDGMy1PupYEeFx7T2CbbWqLSAZmFO+CMMrN6rz7kRNyhgs35Sn9od4/VpChC6enusX/bxfMgjpPiRwksQufCYHbZubT3fv1eGs6Zt+6zKrFYEtpZpY+IhbtJhXICwTYb1s9bXALMjEDLM1hWo07ZO+SxdSfEQlGEIQc4WpI6wzs4XTtvYl7T7Tcn1jddLy8/ZVLtPUgapfDnqmil91JywDp89zDIvTYuA2LBzBhipIu2LgIDV4i4F7Zpa0IkxxICEgv91/QQjZDJVdJ6yxaRlA7c4usTSkheO1hspRIUUtbYCwhwQhXb8QsTnCYhOW1299rCpCuh8JncXXduCksGKS0W+SYQnlIDlHmE+2gdWXalxuVqsxIGm4EAv3SbgjGcxPfR7EMguAYTU22dMPq+GuliJ+jU2g3LhySq0qNMvQ4+JTz8dVEL20+JZmWCvPl2ORsB6MAT/vtmxhNZ5GhU14yuvlhaTielkWP38ChqcIEThmd8J1Bhfwua10/u8XCutHufhCun4hZWOEiLVWHvJxIxLSHUlogcLeA/jCbAmpgbrphNkqEdjnOInFJzbURUhXmvm6Ri0dKyzAyLh0LlB8KBU9w3TNScHS3IpSpNS1xTIrckh/GbeRbjQ5H8m0FAqLKQ6I9+snJBYktkB5LATdzWe491rMSQtSnOSgL5MTTPEUJ8x10uM8MpHBe13BY1uR0ozLEVhzbWtXquvS42eRxu1C4WTjBfFTugFVXMaymFyDDiXer5+QWJDgAmV28033694zUs7PbLdZVTGkrcmPW02LS6l1jelIkVZc3b6Q4jpt53RXkV9LSFmSacPt7rhQXZ7tUY2m+Uqk0vyYnrc9iq0lJSgpeRphhc5MWF1hASg7hwbxyxO30lBxqXbJRt4wb3ZdtAnp+oWAfd4ivpj0t16vFpdS63bmPSOfawm2FuWqFkLih4QXKI+bb5wuAHb3nj6wW+NUWoZdDF18umi6cK1hbUgrriAVl8R1eqnDFbntGu4dnGQmXiAXnxabSkb6LH8xIZVc4RLPwKQQVy+bqydrhC3O05FunwQdMM4F5E6+Eb21tUyMfEBbCZ8NO3GwpQ8mFgV73ZCemGBJOti0CBNxwSbASgiGTdATGIxUdyM9PBaEdP01KK8UllbWd7BaCZlMS5+TZr9+g1xcJ5NVBL3H3xGx+BPSVSTuPCgT+tweaZ7Y5wXpePfryAy2luEqDVwlBtj7mPHO/wk2L8l2bsv8Jn0fpEsP5nlQtuPJuUhbgQwhUpf8za8KOmdK0N5+gX6f8Jkf5YPhGlWbkoBzvqQF9cObhUidwp8LfwZrFyUO8D/HyI5M1Z6TpTYMancib6HxSavYaPOM6megvDDVNA9KYp1r5O0HGPOg7HOWzJjnL+n9YDu+f9q/flsfbR+0a4W/eVAPPI2SWZlixd+zJcTZUKAIkXOjfASquzAPT5d8D5nu9/CbB57CPtVKSDxAFx8h3Zh5zwhxwkW89weKE4k/KFCEdEeka6+kBN9zSdfe/XjqbdVOSBxBgSKkO/Liz1BYWCgWxp1I/EKBImTDes41IsSBUKAIIYQ4EgoUIYQQR0KBIoQQ4kgoUIQQQhwJBYoQQogjoUARQghxJBSoaGGvGWV/WaoNo45T6OUn9JfURq0AYLdFvmtPr6VkLgefWMj3CP7KWio+RG7/9msom/YEblfbYdHnCbwx+zU8FbuXvpMEgwIVLWT5dQfVirIjX/I66k8PByzLQOKJyAUoKIPW4xdDe6Om8jG8pZrC4sJj2HmmNyZMW49FqomQjpCgAiXfAh7EylHWUCwrwGol0oWY6W85J9GjBsvv1Av9+bzZOwzkG8jLyx/zlLXo9kjrZ2IWWqvW4sF61aa4cfkKbHjjl9bl1/5trI2H1uLQhSzcFakVRoiJBBWoXWiRVo6qpGvHKFL4xQGKB0kMFg0dj6QLh/Hc3/eoFi8frl6FxbN/7l3WHYM787sBRGoPHj14GK19xuOhb09VbYRERuKW21C1j7y1mgxkrGcJ0uGt9eRpM5V78v2cF60Uu6lWlBm9TLvaEASskSSw99WQpec99aAEQWs4Bas/JbHXe7L3l+XkrXWf9HpQzeJzpehpfiayFpXtfu3XH+yZBUKrfYSdWN34Hb32kqx/tG0A3izSq8jWeGog2YsKXvBbPsM4nvkYEu9xdEKv4dT+eUM9p++xvMj6Ur/FvQHrT0m8Naj0WlYDfT4jS8rrtawsSOtp2ng0HJzpYz0FYsavf4nvXXMM6+b9ER+qNjOLJuzAXem1eO2Npdio2ggJl8SNQW05ASmbvXIm+a/8Wn3AM9gmrZ0LbNVdctpSWode45ZE5AI0XHvvrz+KS6rNF1W1V4qccc679ZLpFqQrcvgJ73VpfVzI8sSaduGM2ld1RH5YCpLRVy62YoVCnHoJETH2Vx0B0peus1TZ1ZHnWIJ+1UbfUjQlj8VQUwKHLk7W851Nm4s0fyXn2yPtO/hh/78ir+S0Vk32zQezcWLNRhxsEUP6aL3mrdm1p/ULRtYMlBelYofsK5bV+y8guzASd54UAiEoTUJ8PMcCJhb5OVa751TiJAszmvpIpJBJ4Slf8YQ6z05xt7ogGeeVi1Eg0SBp8iIsH1ajjiefVwbmbDKel5fb04eJfy+1OBaiOIXCxk9rxc8sjB6kbxMSCQmcJLELn8lB2+bm0917dThr+qbfusxWPXZLqSYWPuIWLebJ8vPCetnqa4FZkIkZZmvKKN0uBCQlrPreQhBzhakjrDOzhdO29iXtPtNyfWN10vLz9lUu09SBql8OespS43UnLNV4fZ5jqAiL4sQ2o6KssAYqX/FaKGkDhEyEi7RyvJZE+ds14jr74JohqiFE8lZ9R8iKsEpM1W7LV7yil26fY7+qds6ZPwHDxX3W7PZWDS5f8VdNiLwiHCYt5irERrn4obaS8lORd11v4Myx0C2df12M72UCp972bz1p1B/Trn1gMt18JHISOouv7cBJYcUko98kwxLKQXKOMJ9sA6sv1bjcrFZjQNJwIRbuk3BHMpif+jyIZRYAw2pssqcfVsNdLUX8GptAuXHllFpVaJahx8Wnno+rIDpp8S1icDW5zBrqrZZC2NiOFxnZyBsmXY5VNpdZDT6WprldONs755BUj+vPTmtjOxZhAForD7VbIl9aOaniNlrd0uIJghAlT4LE/8mA+/Am/Orf1T6/1KJZ6GFSsr1+PSGhk9AChb0H8IXZElIDddMJs1UisM9xEotPbKiLkK4083WNWjpWWICRcelcoPhQKnqG6ZqTgqW5FaVIqWuLZVZk55OBa2SsSLruyvV5V8YyJ5IxecNO3WU57V6PsOkW2gWcENZWl/PvG0yJEpvw4Y0LhVgtxgy1m5BYkNgC5bEQdDef4d5rMSctSHGSg75MTjDFU5ww10mP88hEBu91BY9tRUozLkdgzbWtXamuS4+fRRq3cyan8bkQFC1pwxQH8iwe11qoKMFLGYPlSuhCS9LoCmrx4ovHhB2dgZH/qpoIiQEJLlBmN990v+49I+X8zHabVRVD2pr8uNW0uJRa15iOFGnF1e0LKa7Tdk763AJYQsqSTBtud8eF6vJsj2o0zVcilebH9LztUWwtKUFJydMIK3TWpQRw5UWIJ55lEbpA4qSLY1L/DLXdEWLligvRdUhIEBJeoDxuvnG6ANjde/rAbo1TaRl2MXTx6aLpwrWGtSGtuIJUXBLX6aUOV+S2a7g3diEz8QK5+LTYVDLSZ/mLCankCpd4BiaFuHrZXD1ZI2xxno50+yTogHEuIHfyjeitrWVi5APaSlzw+20VaJUWj5/MuHApr9e/QFwfUiahEses70RhIvEelH96EUgfHcbbH27HIz8ajWT3Mfw5UBxq0GghuECD23deFSGhQoEy3HwaNveeZMuzWixFuqf0WMoS9Njn6+LTXyWkx1o08ZJp1z6xF/UGC7koIUkrUNvm1xDJ7DyVyq73vQZn716Js5bEDGmVlKJJS/lWx8j9HFWBXHzqmOaYkOWc4j5l+rz3etap+U6RZN7twpmtQIbnPGIR93vJkvnnZd/+DyGGSMEpHH9RWwmf/HvxphEHKpSWRR9MLFLbr3vjOuFhOoZnMaWGl72CO2TKt584VNjvAdywHttq/Z1PLH4E8PcLZdq4tX+krz5660ylsJADp4TLOU+Wt0i88V3gP3+OxQHmQEkWXScssguHsS2Kqesk8UjcibqEOAhtMm+Wn8nFi5dqguudhBsbojqxNoKJv4T4gxYUIV1ONq6Xr+/wl4p+srmD8b/Q2Fh1WLOi7powX7VEylQ8NVF/bRKtJ9JRKFCEdDkqppSSjTxLTCkbqx+Ur0bqhFTzC49h9sFaIL0Qb3TgHXqLJizDhD7CEtsd4RvRCTFBgSLEAfx+4SN+YlDGq486KdW8fin+X9VFJF03NeJ6UDPSL+LQbr5/j0QHxqAIIYQ4ElpQhBBCHAkFihBCiCOJG4E6deoU3XuEEJJA0IIihBDiSChQhBBCHAkFihBCiCOJQ4G6gt07T6POtOwO/S2XhBBC4oQ4FKgemDYjAy65/CoNlhd8E0II6TbQxUcIIcSRUKAIIYQ4EgoUIYQQR0KBIoQQ4kgoUIQQQhwJBYoQQogjoUARQghxJBQoQgghjoQCRQghxJFQoAghhDgSChQhhBBHQoEihBDiSChQhBBCHAkFihBCiCOJQ4Ey1YN6pAnJqpUQQkj3Ig4FylQPSi3TNqpdhBBCug108RFCCHEkFChCCCGO5KqMjIyv1LpGZmYmmpub0dbWploIIYSQzocWFCGEEEcS0IJqaWlRLYQQQkjnQwuKEEKII+kUgfpybh0uPy6X3fhStflj0YQdKJswX20RQghJZDpFoL72kgs9H3fh6tpstAURqY1Vh9GaXog3vj1VtRBCCElUOtXF97Xyd/F19MdXg1SDnQuPYfbBWiQNXYbfBepDCCEkIeiCGFQyvrpWrfqjfileOwNkT1yPRaqJEEJI4uHIJAnN1YcszAji6pv3TAlKSrbi0dtUAyGEkG6FIwUKF/ag8gKQdN1U3K6arMzDSJf83Rs3Ts7VWgghhHQvOleg6j/BVWo1OHtQ/ulFoE8qhqgWK1twvE7+vogP9+/TWgghhHQvOtmCqsFV54H/yX0FltnBfnjL3SB+DsT1ffRtO1t+WojCwvvx1NuqgRBCSLeikwWqGF//jQs99/XHFTkv6sftCxUhhJDEpJMFagH++WMhTMOOavOiev7m3hBdfoQQQhKNzhWoQVPxZV/gG5U/Vw2BuT15oPjZgI8v6Nt2cou2oqSkBFuLmCRBCCHdkU62oEJlKvKu6w1caMZJ1WIlF1NuFPsFvcffgXnaGiGEkO6EMwWqz1QM6wPUVD6Gt1STlX14au8ptd4f13EuFCGEdDscKVCLho5H0oXD2FavGvzx4nFoEuX+EHuZyUcIId0O5wnUoPW4Kz2Y9aSTW5SHTPH71N6nhD1FCCGku9GpAvVl3i34J2rwtaOqwU6fJ/DGxCy0Vq3Fg4Gspwee1pIjfjy+EX8uLMTPXlTthBBCuhWdUlFX1oNqy5JrbvyvTTfh6wHER9aDugslyD+0WbUQQghJVAIKVFtbm2ohhBBCOh+HppkTQghJdPxaUGfPnsXly5dVCyGEENL50IIihBDiSChQhBBCHAkFihBCiCOhQBFCCHEkFChCCCGOhAJFCCHEkVCgCCGEOBIKFCGEEEdCgSKEEOJAgP8POnAM/TD2RMUAAAAASUVORK5CYII=;" vertex="1" parent="24">
                    <mxGeometry x="180.9966666666669" y="162.00467289719626" width="424" height="185" as="geometry"/>
                </mxCell>
                <mxCell id="29" value="" style="shape=image;verticalLabelPosition=bottom;labelBackgroundColor=default;verticalAlign=top;aspect=fixed;imageAspect=0;image=data:image/png,iVBORw0KGgoAAAANSUhEUgAAAWIAAAEcCAYAAAD9dL7LAAAAAXNSR0IArs4c6QAAAARnQU1BAACxjwv8YQUAAAAJcEhZcwAADsMAAA7DAcdvqGQAAABhaVRYdFNuaXBNZXRhZGF0YQAAAAAAeyJjbGlwUG9pbnRzIjpbeyJ4IjowLCJ5IjowfSx7IngiOjM1NCwieSI6MH0seyJ4IjozNTQsInkiOjI4NH0seyJ4IjowLCJ5IjoyODR9XX1a9lspAAAtwElEQVR4Xu3dD2wU170v8O999+omqlWbBBecquC/ebRck+AAUsgDAgGrRqGxwKUoSYES1alKmqb5U8UlIFUKpEYXkqZNqYqr0CRtIpIuiJTKXDk0QHJD9IhjApQWxTYGouK4JrAbOUqeWt13zpkzu2fOzK53Fy+z9n4/0uKd2eOZ2Vn2N7/5zfGcfykvL/8fEBFRaP6X/klERCFhICYiChkDMRFRyBiIiYhCxkBMRBQyBmIiopAxEBMRhYyBmIgoZAzEREQhYyAmIgoZAzERUcgYiImIQsZATEQUMgZiIqKQMRATEYWMgZiIKGQMxEREIWMgJiIKGQMxEVHIGIgprzX/+O/o23dGPP6OFxfqmURjDAcPpfz1nSj6lv4/vPWfX8Bd+/U8ojGIGTHlrc03XgJ6ixmEacxjIKY89U9MGq+fEo1xoZQmmn+0Ck04gM0f1uHR2SUi6zmAhj0liDxYhyLxes+u53Ffu9NWWnBPo9NOGzq8B03PRvWUNnVa/PcdZxFpPoA2PeWyl6XW/ZOzekLzLSuKI0/twYaTetK1eD72LZusJ0zedae1/emy1+nb/sn4Rdt8lMl1nK/ztDX3q7NNUbGdXZi8pRGz3M2LdmHzI8fxup6Uht1naptK1D462yg+2yo9P8lnkJ5/4sWdH+CWC2WoWHuVnkc0NoWXEY+vw/cmdqFhl/hCV9Uhck8VToov8hERn6qnJ4KHDNpOwHgeDfLxVBcwu1G0NwKDDpwQwUe1Ue0uoOFH3iDpBBSIgKHbiIc8GPxisW6giEB2D/CMuxzxiPSWYNaDjXh8qm4i6YAog5vT7gB65HwZyIzgk9b2p0luvxPwjHVWie2w3qdUJNaxbxni6918OIrqZdZ7EO+1qa0RU0+6+00sr0QcHOPLK8HjW6ztd9e5ZRoW6FYOuY+cA6zTTn6WYvm+dkRkCy8Qizh0co+bVcmJA4mMc3yJ8+UVAbZBZFc9u4ys6uRxPCOCStHsOjTrWSgfL7LXKE6+bWSZol2TlenWTBTrifbiT0Zm+/qzezzZt8zi7rMywrY9XRgS2zj15kTwbJYHCxF0fx//3bP4vdgulFThNjfYpbv9aZmMr4usdOiwsZ/ktuoDmTfACtYB4fW3e9V7uLZcz9DkgSSRnZ/F0V7xw93/i+tEpizPBsysVq9TBOyvew5gTqafyJSjYj/L/TEeNXoOEQULLxBbAbH/vBFEtQU3V4kAK4KDJ1CKoKLalmCyG3zOXFBBxpe1Wro/lIFBZHyZZmkioPTrpw6x7qT1yyjO6veV9vanY3EVqu2DjaTfux1gcSHqOZioA5PIVL0HnSg+OqOfam0/EdmsPhCpg43xfuLae1X2X3adN6u3P0N5kJMZdCKIZ2Dhp6gVi+9+j2UJGvvy+mKdymDV6fMq7DMfdl1WBRlZGnBOj512830ZpwoMOpt71F1WwGm9KgG4r+tlVevXHFFs2G9nhU7Git7eeOBJe/sFWcLwtBEPs3yxQAU98/3ph6eWnQPRC+jWT21F6v2NsIVDOCb7Dd8L/LyhHIt+pecTjWHhXawbry8KGbXW+9plTbIRs+C8hvgFpQyzqvgFrdQXi9R2yAtLxsUn98KU94KhcQFMn8b7LmBJ1kUsp00W2x/EuCDmu2jo4WxrddBFSIOzbbJennx5ns9Jz3NY+8PzGeoml0sG5B8OYmA3gzGNfbnLiOUFNJW1+TPTdGV1Ci+1iyAkM99hfleehkfMmqhof9tUEVw9td8gbr3WvcilH1bgy3r7gyQrQeRQ21HxfsyatytZmWQk7b8aJ8Tia278TM8gGrtyFoid+qg0GdOtizppa+/Ckag8HU8dzGV25+35EFTflNm2vRyxbTIjjtdTRfsL4od1wS0SUJr4SASJYU/N09z+tJw8jn3ioOHv+ZBD7vbfY9bURTYszzZ6u4bJzIkoXbkrTeguZfJilX1qnm5pwj0djpcQTNapt69NQH9Y95TaDKr+Pr16G+IxVm5/L6abp+JS/P3Z/H2O09n+dAWWRDzvdeRKEw57fwTss1yUJtiPmAoI7zWRDTcI+4KdG7Qu5w8ZyMFATIUjr3tN5C3VbxnokTVUD13aoBHwrzjHfUkFgoE4G+rCmfcvABVxiu70wkh0YaPsdQ98DqiK8faXNOaxNJGtJDXika2Tkrwf8WM3fyKefY63w6Qxi4GYiChkLE0QEYWMgZiIKGQjGogrKytx9dVX6ykiIkoHM2IiopAxEBMRhWxEe03I0sT58+fx6aef6jlENBK6urr0s8zU1dXpZ5TPCigjbsXK/adx/8bLvv1OBsJYZ56o/x3uF+995Vo9HZK67aexQWyH+wh7ey7HNddem9EjNGX/gd8+dCe2TtPTNCyWJmhM67q3Eo8vFI/Wt3BJzyPKNwzEREQhYyAmIgpZAV2sk/XaFRh3+Am8gu+heXaxnt+NvQvr4bkUIuubLbdgnJ4EYnin9Ua0d+hJQ9nG94xlAZfE8n++3r3lT2Kd8XnGsvsilXhhmzPbv06Xu+5mLN61DjMHd+LxVyZ52nrX6ZC10SXGjZftNur10rfQtuzuxMCoehsuxbfL2X6I6Y4vmu8zYJ/pthV6yuV5jxmxl5fOOpN/Tv735jfcPnM+6wGxHS+jTH4W7j2ao9Z+1Oa2PI8fzCrC6b1NeGSHnpklebEu07rvxY8+CrxYN2/B7XiwLoo9Tx7Dl759O2a4H2vsGJ769Z9xSE9KTtvE/++hrj/im6/H9JRrErY+NAe+W253vISHj+sJbfXWCO6oGMK7P1uFTQf1TCrAjHiqCMJTT6BN1g0XPoF3ojVYsut3KNMvqy/3d4FX1OvOY29PMWa2vIfF9bqJIgPjafHFhPjyJ9q+gm9Y7QxusJVfXNHWDsIQX3xnOXK75Asy+FiBpXoFNrTUottdZ6Qb42avMy5CyeCkg6zeJlkfhWizYXurbpOZiibxPie0G9tm7TO5/fqA47Rx1pl1TXZtBzbIANsjDjru8hZ2otbcft3GXGfbYYjPKZsLcpnsM/He969DzUl3vTvRV3ILmn3t5mLeFOeWUJW1q9XP/DIJjQ/dji/3/BFLn3xJPN5Eb/ENeLBpkn4d+FbTnTpgy9fF48Vj4mh1O367IBGYnQtzczBRBGhnOU47eXdCv9WYpo6aRZgye66aQ46CC8TjIIJwPHtpQ/tr3YD4ItXHv7wteMHKbrpekUGlGDW3Gr0f1n5DZET+DKx/fX1wRia/7G4QtpZfdmut2K5uvBnPvvR2iS99rS+oWMF5Wyf6xI9xX3S2rWzjYpEhijbmOjruxiuHRRZTvTj5QSIVuc33tuiJNnSdFMsqmYDr9Jy65c77esXKyrMjDnCLagAZhOPrlMTnEp9OtDEz1v71z6gDWMUi88A6vEz3mczyE+ttwYke8aN0krXON3DolBOOTp94Tv3MNzJjTWS353D8jPhxTTHmyUkRYBeVyzZv4jdyWur/M7Z3xVBUdwO+pWd96//cgCKRSW/3ZclBnsNx+Z9VhOlTh99Qc8hRcIH40skDniCI9wdU5uYGskAd53zZXd10EQiiJ9AVGHRt851T6CSnsNdNMDIMjxgG39dPXdEBnNdPHSJAiczMCQzNqJsqluVrI75DB0+og0np9XpGBnz7zKMVteJ0PnWbDNTPR4045e87agZhi25zaUBGQJP/IDG8TPeZ/zNRPTMCPtc3WlehqenyyxK5EcPFv+un2m8iIpvVpYl5X6kQeasIzlZp4dCgPFUrwZfUUWcSpolgPdRzzlPOSOW5h5vEPmFZwsaLdQFBVtYCzb6n6jRZv+ZoRlmp+DF4Lq3gM272Lc7vJ2nvZNw1mBPvb6wzvrQDvSXFdqU84OScU87x7lurlHD9BHF2EHAACnDpb8ky8AkoyzTzz9t9Fo6qa2VyIMsXd2K3+ahPlC5o5DAQi/9Y8qKX+6V2L77J00+39qjqgOpVVxv6B8UP3+loMHnRR9ZyVX03qE6rgo8M2Ot0cFqHmQjOni9X8uB1JbShfZm5X52H5+KZOkPJLnNPGEB/NgewJMLdZ+Ho/UiWGs4l6sOexx+xcaT/Yxa4gg/ETn3WzcDc09S30DHMlf7zA/IUuBZ16WZe2+rRpmqOK6y/tDNqomaAyioI61Pz6hmwr5W7degTKd6X0yZTPZBnq+MmmGNj67qxfp4RfYZSMT3FhcWOA+iWtWBfG/359XRavStSubx9lorsNRGJRLBljZ4xinhLEMlEcVHsuqJrvaOKq7qxfm5z98nzLbxYZyrsQFz/OywX2e+lw8/oi1860zUDrO4R4C1NyAtD7SJLlr0pOjxf4LKNHUkviPWvvxF7e5zMN3E6nll2PRxnu2qwxMy84+/z5XiAsg8kdje89LmBLHFRSy5rSWnMV/JJTws6Ag9YrVgZf0/6YqZoY5Y1yjZ+z7mA+kqK+nKAdPdZZvK918Qwjh9DZ6wYM+6aE78w5xfDoR7xWZXfgPX6P6/s7tZ4TSxJr4nEPima1YhRuFdypqBu+mP3E5X8/VxlHdPoI6p6KXSiVneVMq/S+9s6ZYhEG9ktyv69xO8k2jrt7GAvJbZP/15aJQv/8oL683r2h7qQeA714vdkv2GnbdD2u0Fb9qdN9Ov1LEv1eID63cSyMiS7pzWJM4U4+TlY/YiHbZN8v6bT1t5nzvuW3RWT9FW2jHQ/4mwk70cMdL44fIlBdmFrLNcTrjNvYmnknJ6w2qjXoPoVI6AfMdZsQWRJpXjCvsQm3n0tdDoABPSocIJbij9SIBp1VmNL5A5Uxt7FT9dsAjuxOXixLmzuxcKA7l+qfEA0hsxtWQiZD58+xCBsYiAOm744NW7qfG+NWNcos+7CRpRPZEkiEsEPZg3g1bztWx0elibyQnAt077XARGNTQzEREQhY2mCiChkDMRERCFjICYiChkDMRFRyBiIiYhCxl4TBW4k/3SWiLLDQJwt+z4HvhElRgc1Fto11+ip9Fy8ePEyArEzvpkcWsc/9lkAORTPXfJuXvKWjMZoEURjCEsT2dpWr29Z6Y4vR6FR46bdia3T9DTRKMNATPmt/8/4proZObNhGrsYiImIQlaANWL7HsJBt5m07/2Q6laUenmDyWvE9n2QffeQUPXmCWod/cvNtgH34BVG+j63l18jLsb6b9+OGRe996mN03XeD9X9aRM14u2Yiwfr3JvRWzXgeG1Yix3DU3pgS1fgvXINcpRi8364zn14Eze/H0pWp771MTz//ZtQ1Pcqmh7OzxGYaWwprIxYjbahb64eH5boGWC5Mfy6DIoiCMubobvDFrUdBma2WINcpkUGdBFYS431tb4FyLHpfGPXydE+RFu4QybJ2nMNluyyh4bPx5EfYvjgovjhDsUeyDtqcFGdCIrVfXhKj4HWGZuExiZjYMp4SeIl7JHDvAdQow7LNi8eUyNCyMBrjq1mBmEZtB+siybGYBO/A7ENv13gH5Vk7uwpzgGgYhpHkaAroqACsRpHzXcD9ja03+tOi+xWjx9nZqz9659RF+QqFtlBMbWyjYtFVi2yWnN9HXfjFTUUUGJoIZcaZDSeVScbGv4NHDrlDERz+kT+ZGvOYJMumfXemQhyX7hGBLYoPjBvuOzJcN0hd8pTDMtzGUR2vUhkzr0dRsYtAv32rpg4INzgW+cbh085Q/30HQfzYboSCigQt6JWnPIH3YA9rn4+auQQRgM9eoYrWVBMxR2IdADn9RxX/8ETgSMV26MFyzHuHg8oTbzRugpNeXZPVzXYZPE1qJITZcWYKH4UVU9SGfK8UmMsKW2o55ynzJBL875Sobq/HbeG7Uk6QObBTVgl9i/LEnSlFE4gtobNTyV5mwkoSzIwaFKD55IG/nFfNAfHHOX+flFkkU5Qk4EPXcfQ6wZmKXYRvfrplVZ1rczMJ6FRZOm7zYf4P0GUDwonELsjYVxW8BtA/wiOlpHOQWF0KcY1X5CBD/jrX87hYmwSpk3TgfBi7IplwDanbCIvBnpryM5j+AE0iXKtgEoTPZBnor4hiUwdB9Ata8HT7QtpuszQ0+krEyTnDjM/wzPcvlR2a63IzrtxIpvRjQXZa0IOO7NljZ6RD/pj+FA9EcG3XNaDnbpv1f92ss6hj2QZIEf0uieW6pq0JWkJIik5wGVE7OMtvFhHV0QBBeI2tL/WLb6Pt6DZ02OhGYu3uxfhdJvqFZ4eEmUbv4eZJTG880pmf8Lcv74dfajBEnN9eiy6S4dfziCom/Kx14QUlUkvqurnoOrMGXVR7NBf+jBUPkd1MftwUGalueKsO+jCm3L8GDpjxZhx15z0LgaumaYGuBR7GAtb5qpnRLlUeP2IZRe2lltUvdgR0EfYvo9EQH9eu2+wqS9SiRfi2a5/PDrv64Jen29+EiPdjzgbQfeacPv1Jvrv6v7FxTF0vuiWAILvNeH08ZXdy5yeDXafX1Nw/19nufGatGD3Iw7sd3wmqO/zXDy24we4Sa6efYnpCuBNf4gCjOTBjmg4BVSaIErXajSKIIzYu9jDIExXAAMxUZwsSciLdHdgwpGfomnNJryhXyHKJZYmiIhCxoyYiChkDMRERCFjICYiChkDMRFRyBiIiYhCxkBMRBQyBuJ8okYQOY0N+zt8NwoiorGLgXiUKdv4HgM10RjDP+gYZWQgbp49EDioaLhuww93f1XftUz6GEee3ogdB/QkESXFjJgu3/w70SqD8On/wtqlj6rHq6c/j1kPrMea+boNESVVcBmxk1Eat1fs8Q6Dr16fegJty86h3rh9pW8IfCmN22U67FthWu3sW3P6Bjj130rTy12ebuf7fSHZrTZHYOj4hic3447xR/H06pdwSs8DqrHmuXsx64IIzg/9Sc/T1mxBZEklho78FKtaeTcHogLKiJuxeNdpfVqvh7ZfuBN91SuwwR6yXt48XgQ0iKCl2kW6MW72Ou9w+jJ4Tu/Uy5EPPfy9Xb/Vw/NXyIAfb9uJWvNm8R134+f6tb32uKVKC17Qr7fJEaBV4HWXJR9uUG9Bh3y9pBZ11th6ddPlAcM/KsjlDx1/G6ZVArFT/9cIwsI9X8Usebyr/DIanDlxq2udAkbRlHngbdeJCikQr/2GM8pGq5mxigAngqwMvPVmkBU8meO2l53h9M0hlGTwNDLp+OgeqEFtfFmJ4fnNrFut1zM9ctwRomtuNcfm0yNYB4wKctlDx8+fiPHix4X+xBFkyrr12PY14NU/nBFT1+I6qzzx3InT6ufQqUO8uxmRUDCB2MkIAwb/3NaJPvHDO6ionTm2oX9Q/CidlHy8O+n9ATVAaZwenr/vaG6CbiA97p5nbL61M1CBGLoPBgxWOqJDx8tyxGY8UPoW1i7dhn16rs+OR9Ak1smyBJGjsC7WRQdwXj+1jZuQZNyjFORwSRtUv1/98AzBJFw/QUzHMPi+nr4i3LH5EuUJdRDqafcOBzXiZK+JezHl1HZ/TZiIUmKvCe3SQGBxNilnzDpZ6jBqta1veTNilSEXo/R6PX2lqCzfLU84ZYmcZeUHPsQF8aPya18F/vAoWp4wShRl14p/P8J5dmEjSqlgAnHXUW+WGJfqtD1O11hPHtA9EZzpYbPMjnMqMPuH589e/98GxL8TUGa/Dw/nop0qT6j3l2LoftlrQg4dvzXbEaH/hOOy5Bs7ilefdeY4qnHLlM8Dp//qL1G469zxGC/WEQmFkxGrC27FmPlds4dEK1bK7mfDBNS67bLrWDfejHdf68FgVPyonpHoISF7R9ilCbcXQ/UK3L/Re/FspWdI/wzoLHvm8tS/ry7ayd4f4v2lGrr/8ntNAPtePYpY8XSsWZco7zQ8eS9mFZ/BqwFlivg6i29C4xo1i6igFVg/YtmFbR1mluhJwe4f7OtnLAX1y5XB1OzbK9v8ElgugvGlJMPlJ3j7EQeuU8u+/7L7XmX55MbkB5oR6EesyD/qeGC6OES4RBBOesFuNbZE7lB/hce+xET8E2ef/P0T4kzpQIygg0j4Vm+N4I6KIbz7s1XYdFDPJCpQvFg3Vrld517LvyAss/CF8lSibz+DMJHAQDwmtWKlrFf37PSWSEInSxIRRL5/Ewb2jlTfZaLRj6UJy6guTZj3rPD9NR8R5SsGYiKikLE0QUQUMgZiIqKQMRATEYWMgZiIKGQMxEREIWMgJiIKGbuvjULOLTiT3IciU+59KwLvpzH6favpTjSW6wmht+MlPHxcT8QVY/23b8eM+I0yYuh88Y/YmOXOSG+dWtl/4Ld33YAinMOeJ9/Eb/RsKiwFlxHLP9jYYI8rNwapm9bbY/EVoN9EXsLSJ8XjxWPOkFCBYtj4a92u45yel7301kmUUHAZ8di5qU9qKmsuHZtZblZ05vlhquxUmjYHu+tLLisjjkt3nQVPj/gdcAPC2JHtnsEGxirWiIkoP5z+L6xd+qjnUQhBWCqQjNi6d7CPcT9fVTOdoO7h27/cqcU6Au75O9x9gdW9H2rRbS8rnfsbi9Nl+z7Cbm3Y5RlpWjLvNRHEXK+97SnuTeG7X7LVVr0+9YRY9jnUG+8haQ17pO6BHK+vulLUdvMtI7a3PXYMT/36zzikJ12q3ow3sfS/iz3tg+rO8xbcjgfrEp/TUNcf8c3XY3pKG3af6Xr5Rf86A5c3InRGfEEE4mHHO5RjI35V3cva8TGOPL0RO4KG41qzBZEllaPintcFkhG34AU9rlybHDFDBUxjrDlfmaIYM1tE0IMIOOr1J/BOtAZLzJqrDHrTO41l6Da++rOzrDkDT+h2O9EnR87wjNChg7AMcPHltaPUM5oI0HWvfs0eG88lh/jXv79XJhIy8MaXJx5m8N9Wr+fL7dbzfOQ9jU/rUo67HLH91Sv89Wf5nvYvxqA7hl+kG+Nmr8PKtfp1w0iMCgJMwtYlwHZZi9WPPWeKMeOu27F+NBTG+/+Mb8a3W89LplwcHO66Bq/p9k91xVBV732fMmA/WBfFHt1G1qdRdzt+u8A8389gn6l1VuCvL+q2HedQJJa3dZp+PRQ6CHsy57dQuuZOTNEtTKtrnXBdNGVe3g/JxdJEEjKbS2R9beg6KQJ4yQRcp+eooOfJIPXoyahBrR18RIBNZIYtOCGDpDk0f/0klcV6B/gUB4+w67trv6FH+DAPVGK7RJCVgbfeep99ESODVwOYAuO+aA4R5Xjj8CnnIlbfcWSfD5/Dw1YG+Zv/lhfHivHlrwQUG0c1mbUmelQc+kufep/XfEHPEFnuonKZJRu9LkSg3y4CdlHdDfiWnpXZPpO9OIxM+fgZ9IofE0tzuG8rv4ptuzfHH63G0FvK/IkYL36cPmFmzX/Cf65+Caf0lOm5E3IwRZHJnzqEfB8DhoE4iUt/855S96+/UWR6duZsUePJ+Q07grI7yGjT6cAMMixqGH4MoN8eZikwyKYYoNR2cBNWNeXgfsT9MXyon44psT4cSnFEnveVCnGGcQ7HrVLFITWwYgm+lOoMIdk+i11UgTdBBHGRGeemNNGDHau9teG1fziD4ln3YtuTt+k2QnzE8M344T3OrJR2PIIm8f9sNAzFxUB8GVQXsf3GI1V9NiVZOnFKBDIYO8t7D4tTjtR8hUQHcF4/tY2bYGUsV5isie5+6E7jMQdV+rVCUnWtzFInodGzL8RDnGnZRs0+e3YbXpUJbeWX0eDMEUT2u3Q7johjgQzGTua8Hmvm65dHMQbiLDkXzuRpu1s7FY9ktdu0tKF9mbkcWVvOk2CcxKWB8K5ouxem5EUrt9659Mk3rSyuMPR+JLNUWUow94X7SJQXRts+Oz34sfj3WlznCbRG9vz0UcTwecx6YPQH44ILxP1/GxD/TkDZZQW4VtTKZHCYYfizJuvPOhiXXq/nZej8gFXTzkLXUVkLrkWdva/WzkCF+Ap0H8zyr/pkrwk5ZNLWbC/VFWNetcgCY8ewh/1z0ytBhL3P7lnrZLDPBV9Y86vGLVM+L7a3B28F9YiQDryEFh2MS4PSevf/2Y7HeLEu76g6rsg2l5u9FjLVA/V/v3pGooeE7A6WbWlC/O79G70XtcpurRXLimHwfT0jQ84BpwZzrOVmZNvLeCcq9pWn90YrVspub5dxELr8XhMxfHBR/CiuwDx3w2S3rAItTeD4MXTGZO+HOcaFOVu4+6yhVv/Nd7EIsGlkrw1Pyj/w+BhHdhgX4kQwty/gTbmlWnybP8ZgQFof/39WfBMa16hZeasw7zWRqv+vfs3XR9fH6vcru4r9ElgugvEl93d1v974tBb0V2++vrq+fsup+kLbbR2+ZRr9iO0+ySbve9fD8pfoScHuHxz814rO9o4L6ks8Iv2I7ftDyFPzM5gmAsvEeH/XSdiaNNAY93bw9a01JOnfm1x667T7/JrM/rqqH/E11jbo7bX7J9v3uFDOvImlEffPttPZZ7oNMn3fw5AZ8dfExsWO4mlfLwe7b7AQ2E4E3nXr8cAskSnHncGrS7dhn57ykoPV3qGWm+99iXnTHyIas1ZvjeCOiiG8+7NV2HRQz8xDvFhHRGOTOPNaKE8h+/bndRCWGIiJaIyRJYkIIt+/CQN7c9BfPQdYmiAiChkzYiKikDEQExGFjIGYiChkI1ojJiKizDEjJiIKGQMxEVHIGIiJiEKWg0D8GV7bdwZ98rHtMz2PiIiSyeHFOhmQ+1HTW4aKtVfpeUREZMthaeIq7Hz7c8D4f+AybsRIRDTm5b5GXPIPmDecJCIiL16sIyIKGQMxEVHIchqI287/u35GRETJ5DYj7v43xHAJi3/8Tz2DiIhsuQ3E+4twQ0M52id8oPoVH2NAJiLyye1NfxYO4dgPBzGwuxyLfqXnERGRR04z4ua5n6AY49DJIExElBR7TRARhYyBmIgoZAzEREQhYyAmIgpZDgPxZ1hx8ydA79V4VM8hIiK/HARi937E/aiJlmITb4FJRJQSBw8lIgoZa8RERCFjICYiChkDMRFRyBiIiYhCxkBMRBQyBmIiopAxEBMRhYyBmIgoZAzEREQhYyAmIgoZAzERUcgYiImIQsZATEQUMgZiIqKQMRATEYWMgZiIKGQMxEREIWMgJiIKGQMxEVHIGIiJiELGQExEFDIGYiKikDEQExGFjIGYiChkDMRERCFjICYiChkDMRFRyBiIiYhCxkBMRBQyBmIalRbc04h9bfPRrKfz1nei6Nt3Rj1e+46eR2RhICbKlYVDOLb0Erp3l6OioRyLfqXnE1kYiIlypHnuJyiOlmInAzANg4GYKEdqJnyinxGl9i/l5eX/o59fMc0/WoUmHMDmD+vw6OwSoPcAGvaUIPJgHYrE6z27nsd97U5bSdYDVTtt6PAeND0b1VPa1Gnx33ecRaT5ANr0lMtellr3T87qCc23rCiOPLUHG07qSdfi+di3bLKeMHnXndb2p8tep2/7J+MXbfNRJtdxvs7T1tyvzjZFxXZ2YfKWRsxyNy/ahc2PHMfrelIadp+pbSpR++hso/hsq/T8JJ9BOtT/kfhy/Psssf29mC7eb7WeH7RvU26/se2+z1dQ2zHev0/SsXnbGawYX4pNK4qy2gdUOMLLiMfX4XsTu9CwS3whquoQuacKJ8WX4Yj4DlVPTwQP+UVwvnDPo0E+nuoCZjeK9sYXSwdOiC+haqPaXUDDj7xB0vlCQnzpdBvxkAeDXyzWDRQRyO4BnnGXIx6R3hLMerARj0/VTSQdEGVwc9odQI+cLwOZEXzS2v40ye13goaxziqxHdb7lIrEOvYtQ3y9mw9HUb3Meg/ivTa1NWLqSXe/ieWViINjfHkleHyLtf3uOrdMwwLdyiH3kXOAddrJz1Is39dueE4QlkHcXefz2DdxvrXtktz++YD7GYj/S0WzzXZpbP+ZCxgS7a4tV78Q7EI04yBMlInwArGIQyf3uFmVnDiQyEjGlzhfEhFgG0RW1LPLyKpOHsczIqgUza5LXDEvHy+y1yhOvm1kQqJdk5Xp1kwU64n24k9G5vP6s3s82bfM4u6zsp+2PV3qyzr15kTwbJYHCxF0fx//3bP4vdgulFThNjcQpLv9aZmMr4usbuiwsZ/ktuoDmS9IWQeE19/uDQw48kCSyCDP4miv+OHu/8V1IlOWZwNmVqvXKQL21z0HMCcbTWTKUbGf5f4Yjxo9Jz0lmDxe/OjtNdYpPoOfBGesnrOn9l5xMDQ+p3S2X2xjv/OCog528d4YzrYMfWj8vyLKgfACsRUQ+8/7/7MvuLlKBFgRHDyBUgQV1VZ8Sdzgo7MaX9Zq6ZZfKJnxZZqlWV/WeLAIFMVZ/b7S3v50LK4Sp9/WwUZKltHZWZw8MImM0HvQieKjM/qp1vYTkTXqA5E62BjvJ04FPKDsusSBSbI/Q3mQkxmoGVCHJ9Z3QfxIkul7+fetKb3tF/tAbLb7XtTBWhz0pquDjNiv3reYgc8wQxyEY3+5OsP3T4Uory/WuV+KprZVIksxHnZdVgUZWRpwTo+ddv4+piow6GzoUXdZAV92Jytyl+Msy61BOqLYsN/OCp2M1czk0t5+QZ6Oe9qIh1m+WKAChfn+9MNTy86B6AV066e2IvX+Rp48GMhSigrGAfsiI8NuvxP4neciAFedxRGxbvMgE5QkJPcZXlP9hj9FZ0M5bvjxv+r5RMnldSBWGazIesxaYeJhn6qKU073NRlsVQAM6PDf7tYwZe1XTFuZl3thJ1H7lQ8Z5L2cwAhUL3ODogjW1kWsTLZfZaJWG/Oik5NFy9Nsfzv58Ga6V0YuT9mdbFq+N+e6gax5Zx2Mk/BsvyzHTC1BmTiQbhD7umjqZGdaZszWWUNqV2GRCMAVDVdjhgjIx378Tz2fKLncBWJ5AU0HqMxqoQlZncJLMtiqYJz6d2XwU8HYrYmK9reJL5+39hvErde6wUI/rJp01tsfJJ2LSiOs7ajM+o2atytZmSRd8kKn/L+RVolInH08ooNxhhl4utvvHDDFGczNVYB8LksX8vfUvg4obaTlKnSK/1vFX/k06///VDhyFoid+qjk1tuy0N4lvoDydDx1MJdZrLfnQ1B9UF5Bt5cjT0XFj3g9VdcnrQtukYDShKwrDhsY0tz+tJw8jn3ii+3v+ZBD7vbfYwbMyfiFLK30dgVePEuH89kIQUFSLt8O0CI7lcfHjDPwNLdfHTBL6tA0W+xmFZzlRUvxe8vqUJSitEE0UnLXj1h3KZMXq+y+pJ6+mUY3sPvaZbBsxCx4+2063Zn0hMsqA/jaBPSHVV9CK6j6+53qbYjHWLn9Tl9V1TfXbRt/fzZ/n+N0tj9dbunEw/Ne9XscZvnOcmRXvuDeCAn2/gjYZ57PUM9LRbcP/oyEgH1rL9vZftktzfy/5bx3z+eUzva76zO3x93GLD8nif2IKV2h/EHHqOd+cX1fUvdL7z/4UOFhIKZ05fXFuryl+i2LLE3WID10aYNI6B74nH5GlBoDcTbUhTPvXwAq4nRWlSCsP0agwtR2/t/FSdIgVvD2lzQMliaylaRGnHadlAqDvB/x0kvqqbwdJm+FSUEYiImIQsbSBBFRyBiIiYhCNqKBuLKyEldffbWeIiKidDAjJiIKGQMxEVHIGIiJiELGQJxP6n+H+/efxob9HajTs4ho7GMgHmXKNr7HQE00xjAQ55OOu/HzhZV4fGE9uvSsUWX+nWjdvRnbdq/Hmvl6HhENi4GYRkA11jwnAvAa4MCRj/U8IkrXiP6Js+xHfP78eXz66ad6Tv6Rp/bNs4v1lNCzE4/f26In9OtTT6Bt2TnU71+BCj3/0uEn8PP11q181nZgQ5M5RnE39gZms61YaSzL107WhltuwTg9iehbYv13GwOW2r9vc5en2/l+X9Db2hepxAvb9Dzp1sfw/PdvQlHfq2h6+Dk9MzMNT27G/MHtaHmiB1PWrccDs4AjT2/EjgO6gW3NFkSWVGLoyE+xqvUNPZOocBVQRtyMxbtOiyA8IIKWPP2Xj53oq16BDbt+hzLdSim5Bc0ioEEELdUu0o1xs9dh5Vr9uiSD5/ROvRz5eALvRGuwxK7fygAog6MM+PG2najd3qobCPGSRCX22oPjKS14Qb/edjgmpmXgdZclH25Qb0GHfL2kFnX1akZc3XR5wOjGCTMIC3NnT3FuXFQxDavVnMzte+hRFYTTtbq2Uv0smjIPc9UzosJWOIF47TcwsySGd1rNjFUEOBFkZeCtN4Os4Mkct70sgqyIVdOt4Glk0kAb2l+Tg+rUoDa+LBH8F4kAaGXdar2e6ZHTf/AELqEYNbeagzO1orZaZvUv+7L1Nw6fUrf0RN9xZJcPZ+65E6fVz6FTh8B8mKiAArGTEQ6gv8OZjtvWiT7xY9wXzcBlZ45t6B8UP0oneTNn2/sDIgga6uejpkTEuKO5CbqBOg6gWxw0xk2dn9jWtTNQgRi6DwbcJfngJqxqasq6LJGVHY+gSayTZQkiR2FdrIsO4Lx+ahs3wTs8aDrqtss+v8bDrPNK108Q0zEMvq+nrwidmRvlCXUQ6mlHu30QIqK8wF4T2qWB9GuckgzCS6plqcOo1ba+5c2IVYZcjNLr9fSVorJ8tzzhlCWuaFZORBkpmEDcddSbJcalOm2P0zXWkwd0TwRnetgss+OcCsye2vJl6v/bgPh3Asrs9+HhXLRT5Qn1/vwX6eJkr4lIBJGt2V6qy4K7zh2P8WIdkVA4GbG64FaMmd81e0i0YqXsfjZMQK3bLruOdePNePe1HgzK0dirZyR6SMjeEXZpwu3FUL0C92/0XjxbafaayITOsmcuT/376qKd7P0h3l/QRTrXSPSayFR8ncU3oXGNmkVU0AqsH7HswrYOM0v0pGD3D/b1M5aC+uXKYGr27ZVtfgksF8H4kt1Xd5j+xoHr1LLvv+y+V1k+uTH5gWYE+hE7fYc/r6cssaN4evVLOKUnHauxJXIHZCc29iUmKsA/6BiOExRlX2M7sI02OhAj6CASvtVbI7ijYgjv/mwVNh3UM4kKFC/WjVVu17nX8i8Iyyx8oTyV6NvPIEwkMBCPSa1YKevVPTu9JZLQyZJEBJHv34SBvVe47zJRHmNpwjKqSxPmPSt8f81HRPmKgZiIKGQsTRARhYyBmIgoZCNamiAioswxIyYiChkDMRFRyBiIiYhCloNA/Ble23cGffKx7TM9j4iIksnhxToZkPtR01uGirVX6XlERGTLYWniKux8+3PA+H/AvAEkERF55b5GXPIPmDdsJCIiL16sIyIKGQMxEVHIchqI287/u35GRETJ5DYj7v43xHAJi3/8Tz2DiIhsuQ3E+4twQ0M52id8oPoVH2NAJiLyye1NfxYO4dgPBzGwuxyLfqXnERGRR04z4ua5n6AY49DJIExElBR7TRARhYyBmIgoZAzEREQhYyAmIgpZDgPxZ1hx8ydA79V4VM8hIiK/HARi937E/aiJlmITb4FJRJQSBw8lIgoZa8RERCFjICYiChkDMRFRyBiIiYhCxkBMRBQyBmIiopAxEBMRhYyBmIgoZAzEREQhYyAmIgoZAzERUcgYiImIQsZATEQUMgZiIqKQMRATEYWMgZiIKGQMxEREIWMgJiIKGQMxEVHIGIiJiELGQExEFDIGYiKikDEQExGFjIGYiChkDMRERCFjICYiChkDMRFRyBiIiYhCxkBMRBQyBmIiopAxEBMRhYyBmIgoVMD/B9xUtpNuinFqAAAAAElFTkSuQmCC;" vertex="1" parent="24">
                    <mxGeometry x="517.0033333333336" y="681.9966666666669" width="354" height="284" as="geometry"/>
                </mxCell>
                <mxCell id="30" value="" style="rounded=1;whiteSpace=wrap;html=1;fillColor=none;fontColor=#ffffff;strokeColor=#FFFF00;strokeWidth=2;imageAspect=0;recursiveResize=1;expand=1;" vertex="1" parent="24">
                    <mxGeometry x="345" y="463" width="251" height="24" as="geometry"/>
                </mxCell>
                <mxCell id="33" style="edgeStyle=orthogonalEdgeStyle;html=1;strokeWidth=3;fontSize=37;strokeColor=#FFFF00;" edge="1" parent="24" source="31" target="30">
                    <mxGeometry relative="1" as="geometry">
                        <Array as="points">
                            <mxPoint x="159" y="184"/>
                            <mxPoint x="159" y="410"/>
                            <mxPoint x="455" y="410"/>
                        </Array>
                    </mxGeometry>
                </mxCell>
                <mxCell id="31" value="" style="rounded=1;whiteSpace=wrap;html=1;fillColor=none;fontColor=#ffffff;strokeColor=#FFFF00;strokeWidth=2;imageAspect=0;recursiveResize=1;expand=1;" vertex="1" parent="24">
                    <mxGeometry x="191" y="172" width="99" height="24" as="geometry"/>
                </mxCell>
                <mxCell id="37" style="edgeStyle=orthogonalEdgeStyle;html=1;entryX=0;entryY=0.5;entryDx=0;entryDy=0;strokeColor=#FFFF00;strokeWidth=3;fontSize=37;" edge="1" parent="24" source="35" target="36">
                    <mxGeometry relative="1" as="geometry">
                        <Array as="points">
                            <mxPoint x="496" y="572"/>
                            <mxPoint x="359" y="572"/>
                            <mxPoint x="359" y="878"/>
                        </Array>
                    </mxGeometry>
                </mxCell>
                <mxCell id="35" value="" style="rounded=1;whiteSpace=wrap;html=1;fillColor=none;fontColor=#ffffff;strokeColor=#FFFF00;strokeWidth=2;imageAspect=0;recursiveResize=1;expand=1;" vertex="1" parent="24">
                    <mxGeometry x="431" y="513" width="130" height="24" as="geometry"/>
                </mxCell>
                <mxCell id="39" style="edgeStyle=orthogonalEdgeStyle;html=1;entryX=1;entryY=0.5;entryDx=0;entryDy=0;strokeColor=#FFFF00;strokeWidth=3;fontSize=22;" edge="1" parent="24" source="36" target="38">
                    <mxGeometry relative="1" as="geometry">
                        <Array as="points">
                            <mxPoint x="942" y="878"/>
                            <mxPoint x="942" y="1104"/>
                        </Array>
                    </mxGeometry>
                </mxCell>
                <mxCell id="36" value="" style="rounded=1;whiteSpace=wrap;html=1;fillColor=none;fontColor=#ffffff;strokeColor=#FFFF00;strokeWidth=2;imageAspect=0;recursiveResize=1;expand=1;" vertex="1" parent="24">
                    <mxGeometry x="528" y="866" width="218" height="24" as="geometry"/>
                </mxCell>
                <mxCell id="38" value="Las clases colocadas en este property binding se pueden manipular como se nos de la gana, para este caso la clase .show esta modificando el opacity del elemento segun la valiodacion del FormControl" style="rounded=1;whiteSpace=wrap;html=1;fillColor=none;fontColor=#ffffff;strokeColor=#FFFF00;strokeWidth=2;imageAspect=0;recursiveResize=1;expand=1;fontSize=22;" vertex="1" parent="24">
                    <mxGeometry x="93" y="1024" width="496" height="160" as="geometry"/>
                </mxCell>
                <mxCell id="21" value="" style="rounded=0;whiteSpace=wrap;html=1;strokeColor=default;strokeWidth=2;fontSize=37;fillColor=none;" vertex="1" parent="23">
                    <mxGeometry width="1267" height="642" as="geometry"/>
                </mxCell>
                <mxCell id="22" value="EJEMPLO 1" style="rounded=1;whiteSpace=wrap;html=1;fillColor=none;fontColor=#ffffff;strokeColor=none;strokeWidth=2;imageAspect=0;recursiveResize=1;expand=1;fontSize=37;" vertex="1" parent="23">
                    <mxGeometry x="59" y="43" width="263" height="24" as="geometry"/>
                </mxCell>
                <mxCell id="14" value="" style="shape=image;verticalLabelPosition=bottom;labelBackgroundColor=default;verticalAlign=top;aspect=fixed;imageAspect=0;image=data:image/png,iVBORw0KGgoAAAANSUhEUgAAAn4AAABQCAYAAACH6XgPAAAAAXNSR0IArs4c6QAAAARnQU1BAACxjwv8YQUAAAAJcEhZcwAADsMAAA7DAcdvqGQAAABfaVRYdFNuaXBNZXRhZGF0YQAAAAAAeyJjbGlwUG9pbnRzIjpbeyJ4IjowLCJ5IjowfSx7IngiOjYzOCwieSI6MH0seyJ4Ijo2MzgsInkiOjgwfSx7IngiOjAsInkiOjgwfV19pCdMBwAAIItJREFUeF7tnWtsFdXax//n/WJOKqVAgYLW1hbrKTepiCAgSrQKASWcgkY5JjYCiUQ/eMkJOYIfBE1jvHzQ8CbCSU2OeqJQT1QIaD2pclO8gdyqSGuxCKVWKBsaw6f3XbfZe83s2XvPvrW77P8vGcrMXntm9pp1+a9nPeuZP5WVlf3f4sWLsWvXLvT09IAQQgghhFye/I/5SwghhBBCLnMo/AghhBBC8gQKP0IIIYSQPIHCjxBCCCEkT6DwI4QQQgjJEyj8CCGEEELyBAo/QgghhJA8gcKPEEIIISRPoPAjhBBCCMkTKPwIIYQQQvIECj9CCCGEkDyBwo8QQgghJE+g8COEEEIIyRMo/AghhBBC8gQKP0IIIYSQPIHCjxBCCCEkT6DwI4QQQgjJE/5UVlb2f4sXL8auXbvQ09NjDvczY5/DhEem4Uq0oXXdYwiZwyRXKMXLT85GBTrxwSu70T53AZ6oKQRO7Mbipk6TZgAomYC3HpyMM83/xlOHzLGsU4g1yxdgamEI376zDetHzsZ/akuB0EG8uukIdppUyVDzxs9YWGl2JG3vYt3K1WbHQ+3beHz1TBSZXXFhfNNwA7Y3m12SBVZg/vv/wE1DzW6cPE/qWcYl8+Usck6gPWidSbWODUjdDMgkk5cOMdqxOaad69u/DX9rGWraQPM8ukwiQgYhtPjFoXDZdkx//DlcYfbToWT991j732bUmP3BzM6e8+pv31n9N6/57Rz65N9zoRQ7Y8P5vdh4x7VYJ7dEok+KCSftHfkp+qTAWvv+2ygx+9llI7b/1eR303FzzJ/9K53n8gK+yWT1yFQ5yxBSFP1HCKGHzX5/kLFrHhJC75V/i20bvg1sZTgvs179PUnRRwY5uSH8Tj2LI+vmYx+tfTmKafRC59CuD+QxIZw8J//2fwdQcttEFElr0+ZULEjZpAEP/VcIMWt7fP0K8xlJjWyUsxDWb5KCJ/escA/XPSBEnbUtn4A55rOBwhngnulhr0QuL/pP+BXPwJL6JZhRbPbJ4MVYH9ggCrpCOCP+9J/1sxtduWThW9UshN79KHdZIa/FZtyH+bUmDUmffi9n/YV0I3kAi8qkG4kWpWrbCiyaW2jS5AJGiEcNfqswr74eS6aPMPuE5D794+N3/TzUzxwDXGzFh5u/xO/mcMS3z9D7NQ689iwumV3NcpSvrQO2zcfpkVsw5eYCc9ztD3jF3eKzqqPi+79gjEg/2hy/+NWLOPJxi9nT07fVwz3XMffRJ67R0eW5Jy++9xgLaQkRnaLZi+Y4tt5Ri/1OOjnd99dlcA3wZcdaNw4dTdfiXxuMDxFEJ7u51OXr5Xzuwnw3TMr+RgFQPj3l+OGdbTg5Szbk5rjHJ0n7zZxXvoJvmmOOD+Fo5UsTUqP/RdiNV89OjvgS7ilUPkPy6Yf9kyw/okNVsa+pcfwUHbS/YuQejP/TOfe1JNrHJ3siVz3TYp9n70G6C6y4pduUGX90GqvDjHrmuqwVffECXjt1n6t8hMuQKjfA1oZuzFZlTJbT91Di+LmFz2nKbaBy5a0L0X5yCct2lH+jB7v+qN8wSl2ja6ntd+fUuQiJ88zCOm/8KXbjF9gTJG9SwSqvfn62Lh+7iG+fJp6fmreeaHSd8/8sglWnAtZNVdeV6LProk0S11S+e0PVb3O1QVF13SFBHgZkxPQluHf8EODXPWj85Jg5SkjuknWLn6wUSvTJSmGLPskpZ4p3PloTzCGOXrAdU4p3qLT71r2Ijt5KVHv974qmYYoRiSrdtjZcefPfUX6j+TwI3nuSQs/sqy2w6JOsxr+MBWTjF1I4yE4nYhVZF+6AVqNZfj50Imo8VpKaKbJjPo7DtqirvB9rV0/E8YbIucvrvndZWJRPoeqgnGu9iw75vTcaTIpsUIipDz6AO89uMyP33WgvFOKtznKkDsqwyVg5/CAWN4sGuWwy3lqoRaX0yamoss8XwujpWijGvKbshIywdCwKH5woxSJxLMpfqEx0HkrAGsuDuH5BzQK8PMl83t9IoWGmT7U4GYeF1pRq5HlKoSHTSGHoeeY+vnBFt/xDizuTNroMjcLsR0dhtzyHuObs9x/DuKMv6HJcOVX7qq6aqoRcx4EEwkb9Bi029X3J6wE3rf4ZD60yaRxU2ZbX9bmv5mV4zRzf2ib2bb9IuUUJ50J1DSUmVRrpdyfyL5wfyeVZbmEsUMMK40yJhnDuN/3XmeJV9SkWPvVk8TsHtW+hohNPmeOv7pftmRRUJp3aosVVRW103VwZtuSVYpIUZydOxBB9kmSvqdugyDVlmyHqehanjn/ftwWNe08DV81C/dIZoO2P5DpZFX5Vd9WrkdDpvY3pj4SkAHt7k9lpQe8x0RwVDY9aeHFGWu2+MzvfNQmBKERj9XJzIHfp+vwwekWjNe422zeqARMrxU//4j2PhcdtLelas110zvZ3G1ArRELvF69bVgkhQqVjeuV807nfimcam9DUFGNrfEakSIETuy3rWCcOnRB/4nZOMRB9ww97nE5K7LTtilgoXOcrRIFrxC46BtlBCLG4xvTcD8+ajILQQbxhWe3ebBKdkOh47oyaTpIdi2UNET9A6v/Rxd50/cSGWiNIYgweHGvSqvtw01BZLmxrlnnmQ2ei1iuwlGiKpHXKX/F15oDM86ORcleEw9i8ZqPZG4USUYZ8ByVRCHF1p0jX9i5eC39fltnX1eKH8ju9Asv9G6LvKzl6pdgMW9w2Yv9RkYdDR0EMRZPPs0xQ/5J/fTPbS/UmXQDaz0bKs7aMPYC3nPI8chgKkvQP9KsnaeNaMavbg4LKUl1/heqTlrz2Y3HEaApIC33kmiHsbBO/p3BYHKthBvhxBxo/asWFK6txb/08VJnDhOQiWRJ+IzBjaT1mXXUBrR81YseP5nAaXDzWEsDS1oazjuhTtOCPs+LP8GsysjI3qzR/huOiIywaf3ukI1QWlRCOfx7pMBXnD2O/a5qpDdIPuWiUmc+K9b2fuq1OdBeer69DXV2Mrf55kSJ5MtaIhzqw0+q04vkTeq+pnbILMWyk3NNWhb62Ts/Ur16wUjA8HKNDE+XDoy0O2ZzqzQRahPn4/234VgwKRNkY61ls0dPpto4Za1rEXcBTfrzpg1J7O8aJLO7tliY6G48Ic4gq2+nRe8pdB7rW3CAEsxZ6SedZJmh82r++me3pRpMuAKqcO4KmpFC5tziiak6xp1wnJFY9SY9Mi7ogeNuKnS3Sguk31Zther7ElsY9OC1K9Cz6s5McJjvC7/ppqI7pJEf82Yjtn0pLQ2S6V3VMbduTDtdRMnaU+FdPc4WnBOUWzz/qcsIJfSFxOsQaGQrCXjlo+zxdJpzvFp2OP+FBwQDhFWARtPVwwMjhPEuIKudDcbUYKc6pLgf2H0S7bdniKvwBZAiqb6Tdj+Qm2RF+0uzd2Ig9v4rCfw9XPAVGWRqcKVs9zZvQf8qHrlPd4l85hWVNCVqbtupkaao3F1DTXMa/yVkNafst2VsaTt2DiWiLW/qc7paWlXGYmNaUaI6tUrbIRp5lcqpXoy3bFcOBH1o7cS5UikmT5L4Y1eRIzL+YmAGa22d3EKMiV8zCGDGU2CP6Py70ILlKVn38jn3SiA+PXsCQ8fei/q6BGP0sx3Ax/E00TXzFpPG+q3gv9fj7EaaCFmOJrBt6kYea7lXTtYn8pwxmOi0sEl1TurHIzlRvShhfn0zxsOpIHP+mGFO6lxn7D7itxWFiTftnAO1/B5RPibNgyLgwRKdZgZrxQpy0fWv51wVHiU7vNHGSDESeZXKq1xnU6GlaWd61P5sjpJIL/eJfT5Tfn/m/jXan0NbGlOnqxA9y7FBWFigoc0aumS1k5Ip7qjFERq5o3AFKPpLLZFX4SQZyxVPhMhnWpQ2dVjgXLebGo2is3ldhYMIhYtxc+k0qh0qU3j1XH0gHI8ZuWhp/Va3qTIfOxIq6cT6LOvxYgfmPzkTR+b1odkRi8zLsbhOdrWelby6gG29tlVB4X5+ULuJ8MoxDe7Pj0xPC+n2darVu2PH9cmTDe/jmvChfj9qLJRrwkAzXkoK7QCBEOdusVvlGrxYvWd9syp5xYRBp7BW8Jesf0wsrUgxGrQdS4zA7nUDRA5FnGUWLtYra2agwK2N3tnagT5R1WQeSi7NpFkFYi6Jk6KVFw0LWql4LZa0rxNRZ6dRdUTe3ylXDPivsSybgZW99zcg1M0/cyBWE5CBZF36K8Iqnq3Gd5fAqRdf0tdvVVi1NPioci96fkJLYqkS1+b46p4zX53kbyKWPl6C1vQDlj+g0KvbfuiYzcvbw3WM48FWfCgnjnDPlV7hJ53m1qlZ0kmG/O59XuBkLiWwUY1ocpDAMn8PECvOEspCvjnJCZkSuJ7aBDlNxaLcKyyDDPChfOyEO5Cra4K9OsjAWg/C51PlkHC/PmwnkK5reOQj4+Pk5ndzgR75W7AV8A7tsmBAqWYkjp1GLJRr2otdVrn/GUrwXEU5yZbIo++V1kc91CJU0XjcnzilXOauwNM51ky7bAfNMxg90PldxDy3/2QGtT87bPaxFFI4VTXymQ7kIVJgWp35I0aRDnqh9K8yJXATxwYnIZ0/IcEqbDvq3jV1H8DcVakkM3Jxz+4VHSoQ8jxNyJXwesS0U7YJ3QVWGrhl5S4jx87XOl3zYpipMGz8EF45+yKldMmjonwDO/YC23HW5gjoPTkzgV/gH9A0a7JcMHvhML0dMPc5aAGdCCEmN/rH4keA4/nqfUgQQQgghJLNQ+OUUDXhIhlxpezf69WuEEEIIIWlC4ZcLhH2Igr73lFx22H6bWX2tHskmctpe+wqa9xoTQkiOcdn4+BFCCCGEkPjQ4kcIIYQQkidQ+BFCCCGE5AkUfoQQQggheQKFHyGEEEJInkDhRwghhBCSJ3BVbz+g3sxQaXYEHU3XDrI4faV4+cnZqEAnPnhlN9rnLsATNYXAid1Y3GReFSVfC/XgZJxp9rwuLcvI94nKe+nbvw1/axlq7jOEb9/ZhvUpRMAuWf89VtxivSP0fA68UUOG+5HxHc1uTtyTB6eM937xAl5bE+NVgzbmN/UmWxdS/V4/4a3rSDk8UyHWLJevFDNleaR5p3XoIF7ddAQ7TarkcM4p32UdsJ6mWq8HqD0IhPf94HY7NqBEno8m9XYsONkoZylw/TzUz7wSrR9twZeUIVmHFr9+QL43d90dYpPvNDXHBjM7e9TLhNF3Vv/NHfRL6+Xfk2k1lsexVT4vuaUjsEx8xodWmf1Uke95Nveztc0cu1zJVJ4NEOG6fscL+CaT1eO3c+iTf0UB77fOOA5ywJXSu3nTIGPXlO/ufuXfYkvxHeFZI4T1m+R9iU2+k3ggGKByVlU2Bvj1IEVfP0HhRwJgBFXoHNr1gZzBEaFnegb3G5oHO47gCWTtIwEI4eQ5+TfdQYxNRFjkmhXu4boHhKiztuUTMMd8RrJJNspZkhTPwOSrgNMnjpkDJNv0n/ATD3dJ/RLMKDb7ZPBiRoW5J7ZMI5aDApWQtOgK4Yz4k3tW9nSRbiQPYFGZdCMx1i65bQUWzbVcLkj/EKucqf67HvOuN/tBCdDvj6i8GkNwGu0/mgM5TxXmibxYMn2E2R989I+Pn5q/HwNcbMWHm7/E7+awZjnK19ZhtNkTRQ4d/1yCM6fMrvkc2+bj9MgtmHJzgTnehtZ1j4mu3mLsc5jwyDRcaXajzwUULtuOajRhX8s1rrRnxPk7vjM7ybKqGWvrxpkdQSy/noT+SSsw/333q558fabMecI+X2pqshb7zZ5DlL9aNl8HZ/n0HKqSDbk57usr4vgMOrh9WRy/Pa/vTazjmUTnWbdvfkZowEPy9XpmT97/Nw03YHuz3ovy8/KgfTzNOfz89Ux58vMFVecujuPjF7QsxsSUwZ5gZTi4/6o3zzRO+mB5Jv5jXf/wFOs7Kfk96nuCOFfzWLuuuOuTc2/euhjruCZBPqaN8c06F6MuuHzskvEd89ZNjfYJ9P8sgvYBflP+N2B7IC19WvSZ70WRxDWV795Q9dtOzrKuaadxkSAPE2F+I5R/sXsQrNsquPJZ/1b9f0W8dsz6Ld7npM4zzNOuxvCpDLeZBu0LndqAvequesy6Crhw9ENs2efuxX2J2+87SBE1C1fGOOcVd9t9vqBd9N1vbzI75vOqozjw2i8YY+mIi1+9iCMft5g9w42vY/oCu5HxaAilH8ajR2iGP+YKneAUut6vxfmfxSWzKxkxfQnuHT8E+HUPGj8ZfJbKrFv8ZAaphy8zKJbokw9z3Xyz7cCf657DFSaFw+gF2/UDVmleREdvJaoft9OJcwl9eDx8nvlobS9A+SNbMHqsSeJQUYfpjwxHp0l34Ks+cX6fdAGQjb/TSWvfHrEdmJqSj1LNG48B/2udp+k4im75Bx5fv8KkEJiOD6KzCadr6MZsz/tdtYCBECSR823snp9l36kQRk8XjRJEg6ZG7rvRXjgZT9RZjtSyQRMN+WjRADmj+1dFDzv1wQfw8iSdZGfLNnxwQvynbDLWlOhjsmFbmWXRFwwjYKSgcvL/ju0ofvRtOLfq9el0lQ2xaWG0Gs1fiCZn6ETU1Mr9CDVTpHA7jsO+Aio28pmvrRtlPfN30VF5f5Lv/t2ILjn+Ky4N/55oQuj5Sf8vkP+qLLMiz4pcZdadPlieRSivE6ILzjMQv3PoTCy160kSyHOtGH8YG9W5pG/eOCx8336e2l+v6Jb7IPpyjRDYsUVff2Cs28MK40yJhnDuN/03kO+YFA+eurn4nYPa50vRiafCdVZ2lx4rnY+4qqiNbg9Whi15pZgkhdCJEzFEnyTZaxaqtiRyTenHV4pF2Zg67urED+KWCipLPecWz6RStlUHXYPZSces+5b5WibaQrttzDBSID5Rcz6SX+KaqFmAt1K0pB77pBEfHr2AIePvRf1dVeaoP/H7fYvrKzAGF3CyLZboE23BPyN9+oGeeSi/0SRwKJqGKcY4pNJta8OVN//dnU6KuuoD4fOENcTa18XTspGaYTtKe1406ZpwRp5/2XLzueb3fVvQuPc0cNUs1C+dgcFm+8uq8JMjBKmKT+9t9FfFY68R2QycaY0oeGATOjzqWuFS3S04s6dNPPDxKAqLtejvhVq+xkVxheJJc80RB2kJjCj9S4eOqnR/jt3T+SM6tNmi8Q9bIxw21EZ1VEHYvzJiNVJseE93OONvj3TC141Ckbjz459bnY10/vdYFcaMEsX5/GHst87XteYG675uxTONTWhqirE1PiNSJEshClyjZ9FIy8Y6LODECHu6aOiEeLNHnTtbdikn64rpkcb5zSbZYItGfKE8Jr63cDIKpLVgQEWfoLZUWVo7Dtj5vRr/SmERSNfnh4XIKcS422zB0oCJSlC8F8fi6EcDam8pFN973SpD4r7E4AGV8zHfIy7jcbo78my00P05MvhQ5a8bXXY5TUDN0pkoOr8XmzMpkFyWzNU4rJoDq54kg8tauBHbPxV55hLk4thfhbiEEIRKRIs8kVZVcQ9Ji776l/zrm9leqjfpAtB+1n5Oeso03KmPHCZatOT8th6epevYGylahHxxDdQ6cUgM6MJCSag+aVRpP5bZOi2tWpFrhrCzTfyewmFxrIap4py7HHPsgldSir+Ix2D/LjmYdflVdh3Bp2pwW5adBTJCxN8pRHV7syWMxTXfEO1xQc3klK8ZRPAk7Pct4i3quKJYqIPeo+i1ZuwufbzEd2bONWP3XZMQdcDoakusnXoWRyxLYVhDoBLDvUKyvcmyFm7CWek3NPyaKGMUftyBxo9aceHKatxbPw/xpXBukSXhNwIzlkqz8AW0ftSIHbHm7k/9okaT0poXpeI9XDzW4haDXWcTizVz/ig8hSlVSm6bKDrB5C0zwTHWF5ufupVYuGn193E7c9V5D52JFZblws0uPF9fh7q6GFv98yJF8ngbcb34ohDDRoo/pkGM9lPya5xDWL9VjIqlxfBJE25gaz+GF4hFc6eySEkrUfqrdT/Dca+wXzUV5V5hH4RY3zPlpfg6sx+ArlPdouyMEiNxgRG6zj2WjB0ljyaBEbJHP0taGMfDLbzTI+refPPMEdH3Y62asj6OralM4TY+7V/fzPZ0o0kXAFW3nDpTUqimuRxRNafY8hcJhLa+9bV1ZrSOZVrUBcHreyxFl581MhPsbDmIdlFW/lIdsRvNqS4XPZMQuQkW0LiFe2aJdQ+6PR6Kq+P1m4mIKXgC9vsOCRZ1XOoRvbe0trlm9vxow1mXGGzBH2fFHz+xZqM0RDRuQ1QCer7ElsY9OC1ay1mDaA1DdoTf9dNQHXG0i8MmdCiTqxZ/09fKLbUpV4k0DetzOJvtO5h5tFWtWzz0DKGmxH4WHUtki/J7UqE9pPVBij8nXXNkCsogrXtyqliJP+d8SU35ZQgnPIBF7EUhngbJjFAlfft3xfBJ6m+EADChOqT40/kfX4THJtq6pKZ527a7Lb8B0ILMLhNmc/mCBkQJn1EoEfckBzf4Yi86HCEoyWSZH0xsqA2H0+loiucD2k+ouqXrjOzosV+IEHvwxEVO/YDHiinqoJzm7RPPwi00tUXWXrls+95lmorh8tylWOS5pit+YUYYg8nOIofA/b5GLeq42IqvYwhEad2T07Z6Ktf06Z4p12SQ/v0ufeBaD5AJhqD6xsFh98uO8JMjgsZG7PlVZMQ9iVa/tODMa2be/Z96atbXLy8BjhOoNPlG5vGb1AqlbKGtalaHmA7Gd6/I5TsWK26bFB8mjRR3cgrKR/zJjsp1Hpe/Vzamen1QU06Or1EiPFNTk2arxrH9RCcKahaEfQAHHjn1Z/Jf+aQltsDGZMO3SsTr6V5tHUvFmqWsdCKfbZ9Oe0ve9UBbvMYIPXn888/Qc34cJq4yg52ezoxa7wYL0odyYWUIHW0hIfpTfN4ZnOrVaGt6xXDgh9ZOnAuVYpKoJ6rjz5GYfzExg8KKquz5ufUHb0qrpjPdq2Y1QuJZ2INbs0BFuqo4/nZi0z6L2UFbE73+kM4Wa2FPQOSijXuqlWj7UPTz4UUZSfX7VZg2fggu/PJTbP8/yXePhfvzVjmKkf75KYg/taizQrp4WfpA6Y00UauWZwkNcBp7xG9PNLWdK2TVxy8ZZ1CFnIc34i+Rv90Vk8YLte6YeOeiqEr6A3yN06muzE0B3dnqDjFd9LSx6Lg3J9npS3GnxJ+20MRCOs8r8Rd22s/OVK+Xh1WjbgSdcYaObugdZ2jbyVs0lnJ0emI3nmo6qH0Aa/s3YGwgpAXWiL+o6VQzLVw0Nt6iA73IQ02lqunaFF0Hkp7SlatOtVUwasra3LcWotKfbyP2HxViZ4oeNPR2+45GYtAmRKPIg1Fu07Xy+zP/dxEoz5IgbEX3GRjFwNeFQ5xnqfGh/NfK7dribi3oCUwGp3qd0Bt6mlbWMe0y4dSv5EK/6FidBcPdU8TK78/83yYjU4amPQjq55aRayaNXPmrrWUxB56HZPukp3vVFGuoAztdA1jjy7gve64qemo3QrbyKsiijUD9fpxFHbEIvW3EX6IpXCzHcJHhEfcwvY/2Ha4IH2njEsA7MJjW9mZV+EniOoPe+Dom3O1eeKEFXR/+iDciGfscxt1cgItfNQmpJDFz+vZiD7mKJ8tTvc7ii6jR/6rmpP2/tIi0Hf11x+yd6pVWB++59SpQ2+Feftfb0WlrUr9aaybNVuELIg7GIazfJ0bHZbNdjeicubdqH749jj+QbGxlCAcxYlVO2sbfT05dZHEVXCDEs3WtshY4ot1Z6RrBiB57NagPapGHnJKvG5fCog6DEKC7hR4LbImqvR3jTB/vCLoI+r7L6+Tq5W/V/ah7rLxfr2Q9lYz/oRaN9gITZTkrDhlx6SVYngVFPxtJwAFaWODZz6EBD0lrfHiBivH3S2MlcWbQYk0OiCrMoGlna4daLSrrXXJxNo2frbWSXq5EXTQsFOWqoVDWukJMnZVOfbTq9ZOeQV3JBLzsXX2akWsmifFLlsS2TOq8K6icjEViABsl8Hwsm3rFref3BURZ86wFJd6QLQojRqc+mLnBsrNoQ4ZzSWTZir8IZARmTI69qEMzF6Mf9664NQLu7C/Riz8tCpfJfr8NneEFGm34QzY2FVMi55OhXdKY6g28ajlH6b939UqT6D1X46TnXXxRcXrEQ3LH5/PG+dNEx92TBeXvKA+bEeR5DmC4+G6BFdNHmXyHe+LymPh/fSnG8ouKQeZacWjCf5g9N+54YToES6Soy9XCKlaZJ25b1PV8Y5hFXze7oSdMTCxXTY0RL0zFqLIbUTklEXG+duJdeWNOhRu4LIZ00c8gfhw/73PyPkc30c8hahW4E/NtqDseoEP09SJ4n6lvWt/y4VzT734iZSzymd89Bi/brjKr6gfUd2UMvehp6Dh5ZlwivLEw1fn94hs6LhS+z8j//t35ETufnN80MHH8NE5dibx716mHVt0zMd78LHf+cfXMjqpnUNOU8MSHU8Srx+aaZzzfU+f3xqDzazs89xUm3jXNZ4neQ+z6jR6ivxu5t7jnDeexuy0L47lv2ba9gVtFeybDrbjzLOnnpD4LKfHsfU6+vzWV9lP139W4uDfAog0bv34/8Lmi+35vfL5o/SDwibsXdS6ZRpTtcXa/H0MHRGuG+LEHBwP9J/xSRj8wW7wRki2CCL/MY0QC/AQayR5a+Mn4gpkfEPWP8CNksKGCH19zMk5Q5+Bo4dcV/TIHEpesT/USQhJgpl07PqXoI4RczgRc1EGyCoUfIQNKg/Yfa3vXZ8qTEEIuJ45hh70SmAwIFH6ERCHD45g4eDEDYKdJeLXp/fr1b5wOvCyQfn86hqL2CySEkFxjEPj4EUIIIYSQTECLHyGEEEJInkDhRwghhBCSJ1D4EUIIIYTkCRR+hBBCCCF5AoUfIYQQQkieQOFHCCGEEJInUPgRQgghhOQJFH6EEEIIIXkChR8hhBBCSJ5A4UcIIYQQkidQ+BFCCCGE5AkUfoQQQggheQKFHyGEEEJInkDhRwghhBCSJ1D4EUIIIYTkCRR+hBBCCCF5AoUfIYQQQkieQOFHCCGEEJInUPgRQgghhOQJFH6EEEIIIXkChR8hhBBCSF4A/D8y/Oor8HkaaAAAAABJRU5ErkJggg==;" vertex="1" parent="1">
                    <mxGeometry x="132.99941176470588" y="548.0041176470588" width="638" height="80" as="geometry"/>
                </mxCell>
                <mxCell id="13" value="" style="shape=image;verticalLabelPosition=bottom;labelBackgroundColor=default;verticalAlign=top;aspect=fixed;imageAspect=0;image=data:image/png,iVBORw0KGgoAAAANSUhEUgAAAX0AAABVCAYAAACl8TS+AAAAAXNSR0IArs4c6QAAAARnQU1BAACxjwv8YQUAAAAJcEhZcwAADsMAAA7DAcdvqGQAAABfaVRYdFNuaXBNZXRhZGF0YQAAAAAAeyJjbGlwUG9pbnRzIjpbeyJ4IjowLCJ5IjowfSx7IngiOjM4MSwieSI6MH0seyJ4IjozODEsInkiOjg1fSx7IngiOjAsInkiOjg1fV193yGHIQAAFCBJREFUeF7t3Q9wFFWeB/Av/gMJGSKGEEBNQgIsIa7hT8JCiRgxKhXPKx3R2qWAUgnWcShcacWcCGUJWpH17nSNWEtwKbDcLYGROiUVNSIKW6CECB6YrJCQUSSEGGOYEARW8d7rfjPTPX+SmWEmmWG+n6om06/fTHca+PXr33vTr19aWtqvMMjIyMCJEydw9uxZVUJERJeKy9RPIiKKAwz6RERxhEGfiCiOMOgTEcURBn0iojjCoE9EFEcY9ImI4giDPhFRHIm+L2ctqsZyaxZwajcq7puDFlXcnQlrm3B3cuD1nUJ9X+QVY9Y7T2PyYLUKB/aV3YSqarVKFIUGrX4FmelqRWirXILjG9SKXwV4/vYSZH+3Gvf+Y4cqix2/zvo/nJtiEa8cuHLtb3F5s14ezS7hln4Z5m5vwmOritV6bwjXPitQdV8GVs4Ui61BlREF56qSlbhp039gkFqPtNMlS/DlA2Ipr8UZVdaTR/NLkJ/YiPdjMOBj0kci4EME+3QMeDY2Ar4UfUF/TaEe7KKt9V34Fh4TAX25YZm7SG2jKDAGyeteEUHOx7L6DlWnb8mWsOm41s3DVWpbPLrtN1tw/8gu7P1oMf6sypzGPv0M1mx90XvZ8HuMVXWc7vpvc52ypzPVlsi6kJ0FNFbFTLB3Yk4/AKmrvsTy0mnAnhf0C5JaDuVWY4KqQ1HCXqm3No1LyYdqY1+5AyNFkM9Mt6PReFwbgaElY1SdeLMAs8cl4HT9a1jWqYq8fIN3730Ki4zL/L/ha7UVyMRDG17EPRmGeu99A0vewl4I/MX49Vr1MsZENqev5edT/OajTTl1Zy7fqfFtrFxYqlbMZBAunirzaAaqDwC+thl0iMD96jMV2mvX/l8HZougnqSVirhhy8Cba9SKbOGrgO98nyefx2Pg3qfK1beJ323z9drnOvdpPC6THs5hb7PMqcI42PD5jhsw/pE8V+rgZOUs2L9QK0r/O7cgNz9BrYnb/72r8dUH+m289jlDanDg1RU4p5UYLUD6cisSDPV7Jlv6/46R7SLo9xTkb5mH0YsnYaBaFX/jIhj/D06rNdNnbUs11T2z7zUcWX1YfcZo/Fi+C/0XFyEZDhwvX46zd6u8tqMW9Qs24rx4qee6Pffhm2de3LU/RaZsxo05Ij67BUM3yf3q3PXkBcZd7s14HHrdgfK9J4twU5F7x175+B7PmYGqe6abnL5s5f/nuBZs2erdypdkS39JXrsI5mvwvirz8vAirPmXIah5ZRXWf6LKhIDee9GK8cvSZfjnD29jwJtPqbLYENmW/pFWdMCC5NFq3Ze2Y3oax5nWmfkC9p3StvgkA3Xx1FZsM7S4tzWqjULLMzep8rfFP0s9mDrrycUrsA6ehuLSHDSU6dsr9jiQbnW34FNn5IjA7EDDp74DvhT0PjMfFHcO7n3KvH3S1KdjJ100yoopjwzBsZWz8LlYDuztwrCiLRg2Qm0XZFDPzW9Bvarz+Rs1QH4Jxt9ZoG0/19YFJA1Bf23Nt67vw5/n1fLcKiA5W9yN9nRkblqJ5FtUJad0EQi1wK7qVtoxcLK4GMxX24Vr5k3HufLXcNxhEa9XiranuFCIerCMhkX7vDswWMZS+1c9BHx1NzBEXCycdwLltYDYn1d6yjIJ4zbJ/fo6rg9xXL2/fp9DrHvcXfgI1PK9NxWJdpbhfclF7vMR1DkLSAFmXicaA8cP+Az4gborJ01cXBux2xDwxeUE9+Qlip9puPFhvYTMIhv0q4+JoO+mpUm2OwNqMVJFc6Sj1RCxeyJa3TeLuza7rRD7VdHFM4+Mafn0kDjmLORoAbgYE7JFC/7UIewPayu7QVy0DC33NbXaxSJpRAQ6nYv/hMrKSr/Ln0LaZRfsbywWZ0537mCdCCQJuDpVFYx4DtePkq1/dx00r0CDuDgMyreKZoB4z/fGHpsCDHusClPmLNBXR9wgPq0LP4W9U+cODJ1s0VrFxhbo6ZJKtImjGnm3Z+5fBszlaNupVjd8JeqJIDnMmZKxYGD7Ltf2gZZ2NLruMizonyF+zB+vtbrbvur+7uOqkumintifujvQ7NyIb2TgThfbPIJrW2V3xxUkeVdiuBic/+wIzjiPP+hzFoDEAmSLuNzw3TpV4E8a7jHk6s35/EwMl+mVH0660z23/h5lW+8E3vsATWL12tTeye3Hmgjn9BvRJlrtzmA2PEX+d3cG1Ewku4YkBkZvdTfgkDP1Eg5hD+gBONWKE+qlrhRv+rojCIeKx1FUVOR3eTyUXXbUoaObzqv+N2ZjkPi7b/dI9+iBPhVXyzuClnYRZNRr8W/hapnnGpUrwoiQOiT0ESeydW7sLBWLq2WuAvCZk+50ie5DnJJX3SGp5o5Vxw/uAKzRW9HGdIspmHvVD9QYWMaI39zH+80B2MmOUz0OhQxCe4t5v+Jic0T8nlqQD/acBSJR/v12od1vLh/4+oVV5lz+vSKQW3KxZOsi3KXqGGkdv0uuwSei7h//ogojaUQBLoh/s1fUxVZqR4pw0K9Ai2iCJKXIK24ZcjIbsG+Pw9Si7WiOQKCjPtU/WebxMzFuuWi9G5ciQ8ur+Vvx317dHUzMxbCjNbB3OC8CUgt+CmVUhI+OXHNe2YFzshnoi+Xavh1N4xl8DUJuxYdFNJyzj/HH974RP73TNnL0zpKxjXglojl8ZcRf8c9n7Tj7gAj4z6bjilpVHkN6Z/RO8vVILbweSY21qGpuRVL2rfq6+MfUdkTViUr6RQuDczChUC+JORFJ73RPy9eLlr4rn29a7sdJQzBPGFqA/kNTcbJ+BX5qT0Dyjfo6Otp9dPBGWMgt9W40/aCNWU8ef3HDRr1b2lEiEufMn6M/aulCPW3TiBM/iB8Zd+IefGAe1XPrMGiZn5YgUseBav4DrhTBfsAm4GcR/H+epMpjSMSD/olWPas7fEYOIPP3Mn8tg6jWuduKliBSKy3iggGkiAuGvq5ReX5vKrWk3WWEbv8B+eUoC7JmBBIdw7PPsIpEeqcHpjSOX434SevwyUSSaMTK/L2jvhGDxoigL4vbvw1/0Ndy3xZc8zvPVrPe2Xrm8GfhD2A7P8OP8r9A+vhuUlaH4Tgsc/feda763WgMDDGdc/5ku/hzCAaE1NmqROKcdcrUXgKGyP7WIIydlimOpBNf79aD+fuHZMu/EzXvfqytO+n1vsFBzzTPjGXYaLPBZnsJhr740DTvwGXi3+/P2S+qgtgR8aCvBerB03D3VKgRMKU41GjBZOs0JHnltnugdXiK984uUwVlmCuHU57SLyxmqpWeOQuzLqaVvqZQGx0kR9d4ftN2wlrPcfph2mes+8IGe0cC0h8pF39b/uwQLXtoHbvpUH0EXxzAyaQ8jMtPwOm2CLTS8CG+3+fAwMlzTR2jg1bLIY52nDDk6sPnMNo2ym+oytEuHt+OvWUeRqpx+udX7xLBVdQxjtQR29O0TtRKrxE3AdHuMkLsbHWJwDnr3IG6TiDrOtVxH4iHF2FJXiIcNX9zD8/8yweocSQi7yFDB6+q1/Sej1TPqGvEpUbKwMzS6dqreBT59I42bFMwdJjqrWfBOVxTkEMx9W+6qmfOyGGNXt98LcWbZbvR4do2C21lGdhcpzZ72L9QDv8UF4lS52eH9oiE/QvdwyqdnyOXnAPeo4jCsk/jt3+17y4YPu+dt0QbOtrtwMlXZ6H+qI+8vnOEjqCngYDTh3eoVv06tB/VXkRkuKZ0fvVy1O8DRi52d/TqwyR7HkMfMq1jVA7rlIHf0Mk8D/jeFTRlJ3El2owd0WqYpLHjOChyv3L4qKlzO/jHMgR2zvQhp87jluP5k4uc9T33uQPbvxN/9yNz8agq8eT5LVt9PP5TKH3B2BhoxPr5a1ED2cHrrJcmAr6fztz1/4svfLUP40z0PXCNiOLAArx+rxVZx20o3NvT0M3wmV66EUvzEtC0zYon16vCkPDLWUREQViHzfWytW/F6932/YTRjGUoFgEf9ncvMuBLFegnO5JjEIM+EfWJj/9xP7YcB7KmbMHzQXbqBmc6lq23wfb4RKDmZVifCM+XHPq1ObT+u19666IVJkzvEFEf4vP0exuDPhFRHGF6h4gojjDoExHFkYgGfZkqGjBggFojIqK+xpY+EVEcYdAnIoojDPpERHEkokM2OfzTmzYvr+EhnKb5eF3UXLquSWbMs3sFpwxztz+IpG7m+NWouYCdc/Y65xwO++RVRNSn2NLvZdrD2+S8uPLBcarMWwWq7nPPn9srqufgVbk/sRjnHI4WcpL1Kcu7e2onEQWCQb8Hrqd/rnU+zllZVC3Kv4zvRygTUcxh0A+IAx3Jcf6MfCK6JMRY0Jf5af35+qmrvtRb4NriOZmJpNd11/FulWuteNmCNz6/Xizu5/c7taKhDt3OnqUfj+dx6McQyjP8A6bdcbiP3fe50PV8zgLleW79f5Z+pxTqHdECpKvn8Ofm+5p315ju0euOv7MAmFhuqFOF9ImqimCZI8oee06fnctpxHMY71FP4/E5xrkAiGJVTLb0061NKE6p0nPeM+WkJVm42zi5iBYI9c5LvU4GKvZAm4jEK6DLCVlKU/B3Vz2H+HzvINXy6SFg6gMXESgjQF6scmtdv6PrXPgKwtmLUZx9CBXGeqFMyKJdIM3ndlujn32Ki0OO1mkd6HSTntbBrubWPbDX17y7i7U5U40G5ZdgShFc9eT7hhVtwbAgn4So9SEUpcL+hnNfNpwcZWXgp5gXm+kdObJkYalaqcD+OvFff3AKhmvrxZh1e5aID2+bRqu0PFMuAp24YNzuGejkyBj3DFgyuHeIIJWszeFrUD0HfxfBLcfrLqAPyc5X13mQKlD1kez49T7OJIiA7xqNo+oNnobCIH+fCbPlNJe7sdlwbvcvfBt2sc+bve5o5NSY8qdDTZXZCzpqcMBwMTh3sE6bj/XqoK5uCzBcTtm49zXDJO7iAlQpfplRdwV9ASGKJjEZ9DvqPvE/lLDwVmQNFnXkJOwmnhcHxTCNY0/2b96NJK+LRpRxTk/pweucqXpJI4Jpgestd+/z739CeH20UqjDTUPgOaF68wp8JVrq9i/UeiAm5mIYutB20ONRvy36hN7BXUCIoktstvQD0NHsr2WZgtRQO2SrP0EDgm8dR5J7bmG1GMfad6f6WDdDRv0ovF77bM+5gl3zGl8i+g+VUV1O7G7I58vlkbyg55clijaXbND3rxUtIbc69bRIeq7H8M0+on/RS6annDl9sXQ7/t9ABXD/F0cf1IWiw5DPNy2mVFPsOve9vI/pMuTzzUtQdw1EUebSC/qyNS5z916BuRgTsi1AY60rfx+SNbWwZ04KrEN30SSkq5fhpzpJG6tCSp2kzsgRQd+BtiOqICD+0zj+XNzoHTc9EKfi6gjk0/vfmG1uwQebxpmxDBttNthsL2G+KiKKVpdgS191UmY+aBqpk7pqMSYPFq3izRfbGi1F9Z4U3Hx7ilrXtTS3ij8NHahyBJE1S61Egh6AYbwAyX0Gkt4pfAuzp1pEi708yAuG+9wGNgz1YkfvGKhAnF5wcaNnzrV1iatWNpLUxUOO0tGHgxo0r8Cxowh81M+oa8SRSRmYWTpde0UUrWLs2Tu+nyMjx58XT23FtpnuUTjeQbfBvF3Q0iPJHs+YUc+g6VDPxNFTKB7vVXVkS9n4TBz9OJwjx+V7NiH1naeRVec8Xv34fbf+Dftwfb4PpmfieHye3PY6MNtw/JL+O+ivnTyf+WM+djOZzjE9t8fn8fl+PpA7BRWGzlw5br7I+IvIIZzOkTpynL4Vw47a8Plb67QSf+RY/XGj1Ioc7fPqtxgu3otKc+rG5wVBq7/C3FmsTby9FBPF6euqeRnzynapcqLowweuEYXB9NKNWJqXgKZtVjy5XhUSRaE47MglCrMZy1AsAj7s7zLgU9Rj0CcKmUzr2GB7fCJQ8zKsT2xQ5UTRi+kdIqI4wpY+EVEcYdAnIoojDPpERHEkokG/qamJ+XwioijClj4RURxh0CciiiMM+kREcaRXgv6FuXacfVYuH+GCKvPl0fwqVOdzOjoiokjplaB/2ZvpGPBsOq5qzML5bgL/n+trcHqkFVt/U6BKiIgonHo1vXPZ9t24HCn41d/jajtX4N7PGzFoXAle5zykRERh1wc5fQt+NU1S66F5MbYcB7KmlONRVUREROERlR25WpoHmbirmzTP/P+SMxVtxLIZqoCIiHoUlUEfnTtQ1wkMuq4At6kis/m4UZs5JAFjp3KmIiKiQPVu0G8+hn7qZfd2YPt3XUDiEIxWJWYbcNAuf3bh6z2cpYiIKFC93NJvQL8O4Ofpf4Xpec4+fOzQJ8K+IVFf97ThCSus1nl4/lNVQEREPerloF+By19Ox4BdKTgnx+0v7Tn4ExFR+PRy0C/GL0tFsM+u1cbtD3j5DwGme4iIKBx6N+iPKMCFJOCKuqdUgX+3WVLFny34tlNf9yQnorbZbNhYyo5cIqJA9XJLP1AFmHldAtDZjiOqxGw6bhkrtgsJef+K+dorIiLqSXQG/cQCZCcCDXUr8LEqMtuF53c2qdcpuI5j9YmIAhKVQf/RcXkY1FmDzc2qwJf1B6GFfcfX2MkRPEREAYm+oD+iHPeP7K6Vr5teOhMZ4mfTzudFu5+IiALRq0H/wsxp+AUNuKxWFXhKfA5bp2TidP1q/Ju/Vv5DL2kduEvzWvGu1Yon16tyIiLqUb+0tDTTUPmMjAycOHEirHPbyufpn8+Urxy4cu1vcbmfgC6fp38/bCjcu06VEBFROPVK0CciougQpUM2iYgoEhj0iYjiCIM+EVEcYdAnIoojDPpERHGEQZ+IKI4w6BMRxREGfSKiOMKgT0QURxj0iYjiBvD/UJ0HwodzLIMAAAAASUVORK5CYII=;imageBorder=#FFFF00;strokeWidth=3;" vertex="1" parent="1">
                    <mxGeometry x="26.000588235294117" y="236.99882352941182" width="381" height="85" as="geometry"/>
                </mxCell>
                <mxCell id="12" style="edgeStyle=orthogonalEdgeStyle;html=1;strokeWidth=3;strokeColor=#FFFF00;entryX=0.5;entryY=1;entryDx=0;entryDy=0;" parent="1" source="10" target="13" edge="1">
                    <mxGeometry relative="1" as="geometry">
                        <mxPoint x="150.47058823529414" y="457" as="targetPoint"/>
                    </mxGeometry>
                </mxCell>
                <mxCell id="10" value="" style="rounded=1;whiteSpace=wrap;html=1;fillColor=none;fontColor=#ffffff;strokeColor=#FFFF00;strokeWidth=2;imageAspect=0;recursiveResize=1;expand=1;" parent="1" vertex="1">
                    <mxGeometry x="348" y="560" width="272" height="24" as="geometry"/>
                </mxCell>
                <mxCell id="15" value="" style="rounded=1;whiteSpace=wrap;html=1;fillColor=none;fontColor=#ffffff;strokeColor=#FFFF00;strokeWidth=2;imageAspect=0;recursiveResize=1;expand=1;" vertex="1" parent="1">
                    <mxGeometry x="318" y="585" width="351" height="24" as="geometry"/>
                </mxCell>
                <mxCell id="18" value="" style="group;fillColor=none;strokeColor=default;strokeWidth=7;" vertex="1" connectable="0" parent="1">
                    <mxGeometry x="707.9958823529412" y="342.00176470588247" width="335" height="130" as="geometry"/>
                </mxCell>
                <mxCell id="16" value="" style="shape=image;verticalLabelPosition=bottom;labelBackgroundColor=default;verticalAlign=top;aspect=fixed;imageAspect=0;image=data:image/png,iVBORw0KGgoAAAANSUhEUgAAAU8AAACCCAYAAADGzEosAAAAAXNSR0IArs4c6QAAAARnQU1BAACxjwv8YQUAAAAJcEhZcwAADsMAAA7DAcdvqGQAAABhaVRYdFNuaXBNZXRhZGF0YQAAAAAAeyJjbGlwUG9pbnRzIjpbeyJ4IjowLCJ5IjowfSx7IngiOjMzNSwieSI6MH0seyJ4IjozMzUsInkiOjEzMH0seyJ4IjowLCJ5IjoxMzB9XX3Iw6qBAAAWoElEQVR4Xu3dC2zVVZ4H8O/ubFZjY1uwg3Uy2JbWdLa2QAe7a1keRWikASHacQw6giVTJsPqquiECphMwmMx4mvUJkMnOuCoQbYQKwZMRcojMFmEYovsstPSImaoFaStqdFkzO4553/+9/+8t/f+721p7/1+kmt7//d/n9hvz6vn93c5OTn/ByIiisnf669ERBQDhicRUQAMTyKiABieREQBMDyJiAJgeBIRBcDwJCIKYBjD82a82rAUjcsz9PXRq/a3X6J733lx+RJvzdUHiYgiYMvzV/1Yeztw9Nkc5M7/Ie7fr48TEUWQ8uH5zJQ+4Fw6Q5OIYpLi4fk9Jt6gvyUiisGIhOec5Yuxr2GpvlSgVh+3q33KvN24OMZKi0rQ6HffcMeJiIbZ8IdnUQVWF53DM7XbMb/2XRzvvxnVW0owR99sTixV39CqzxGXF1qBchG4T91snHKmHdW7PlPnzg+FagbWLy9FGj5DY20LGvRRIqKRMOzhmQYRnE+244C61o+n94sQzCjFz6rUAdEqLUW+DMDQOYIIy1eO9QOTSrG+SB/b24JnxLG08gp1bM7yCpRl9OP4CwxOIhp5wx6eg2c+s0JROn8Zg+JL9k2yBZmBO4rE1/7L6FA3Wg78+Zw4LwPjc/QB4cBrLaLlmoGyx5didXkGBo+14Okz+sYg5n6LYvH0HZ9cow8QEUVn5CeMzvSjR38bcrnfGbA2RsiaRMv1tVYVvuhvxSuvidZpEHMH0SbXda4AXp6fg3m/18eJiKI08uEpWprZ4kvPxeiCz3nezXj18VKknfsMnaLrv9ocE43V/jRMFqGZuxV4RIToh7/Sx4mIohRfeAaY7Z5z+ySkiRbkV+fltX58JFqimDTJc3/jvM9waq8+INQ+VWGMj/5HC/5TjYlW4FU9dhrI/mtxWjxMwZTv9AEioujEFZ5GwEk3Y2o0ISbC9mHXWOUB0Q3vFPevtrciQ+e1hiaD5HKn6klA5y5jgsgY/wTy7+EyJSIaefHVMJItT9mNDrNcSK7dlIFn17lrO/7N1po0yOVKslVpcZxXVYF994hw7W+1zdwLQzz/0L7HWzs+x/TL2chdyUkjIopeiheAY3gSUTAjP2E0qvwAFy7rb4mIYpDi4Ql09F4HTBrgVnREFBPWbRfkfp5rb/9GfHcdjj7LbemIaGgMTyKiAFK+205EFATDk4gogJjDMy8vD9dee62+RkSUmtjyJCIKgOFJRBQAw5OIKIAkC8/NeHB/Fx7ZkOCtQlY242nxuE/velNtpxdE9oZPxGM0o1RfJ6KxjS3PUYhBSzT6MTyjUV+J9XPzsP6eB7y74CeR+c8/g/rd4vL8HfqI2x34jbw9dFmHmgp9E1GKYXgSsHylCsOS0x+gSx/yqFiCzbvvRF7XB1h592p1aeq6HmWPMkApNcX855lynefFixfx7bff6iOjiRzzvA+ZxzZhJx5GbXm6Pt6BPXMr0aqvGWpRtWsNbguVSBrAx5unYG+zvirJsc7qAn1F6NyB9Svq9BU792NZ+sRreXldg+qK15b3itdxAsXiNea6bjdfu3ncy+89AMuea8Si3EGc/N1SbDyoD8ZChuKj49Bydz32qZalDshVH+kTDLJVuuiGU3hp2ds4q48B+ajZtgJll63z1XkQ15tuFI87Fea/QNd7q/Hsa8b36pw88Ykf34q6TZ3GQSHcccxei+3//lOkdTeh+olt+iDR1ZWULc/M8jWoLTqNBtnVnrsJH/cXYOHWzfpWSQaVCLtLIgzVOXloOAbcVvcJqir1KZLZXVePoY956ODEUf188rEG1C3djXk6GE3idYiAhDiuHrexQ7zWh/Vz1uENx/1lWOrz1MUbnCI6UaLSNg2F5TPVkZi1vI06FZyR3IESGWpn/8sWnMLyO1Em0zHvJ5hvHDHk3Yn6R/Nx9iWjhfrS8a+Rd5fVQt23aiuOi7eYXnandT/R+vUNTmFmeaFRsSC3RLxjotEhObvt/SLIQuOTDWg9I35S86eFJmCyN1SJFp4IJ1srsmfdKyIg03HbvfaQjUJlBQpEi7P7Q2s8tGfdXnSLr7lTvY8lA/WNen2l/oQ4Lx0Fs4OuDtiGdvlEGMTZY4fVkWFRcSNuEF8u91ihVrhmHervAprek8WoxuMmR9f9axx/aQNebzGund10FF24HoXTzVoBnXh9mRwiyMEiNb4qWrx35Yjm6Qee4JQOHztrVEztbhfvmGh0SMrw7DvTEmFipxalRaK51HnC1ZJrQM8l8SVrYmzLkW6ZgEz9rVtfrzsIOnDaDM4E2fZENaqrA3bZA5Fd9WfwaNZR0aoM02Id6MRRHZyG87gkW5pZtiL8+AjPyuCVrVQ5VCDOaXINFYQc3Iil1eJ9sstOo0gKThjlI0uOTebfZ6zdtF0W2osoRav+HdWlz51nrQE1WrYD6DgYe1Wl0U2Oia5A4dmtnjHRQF6rR5Oeoep6b6ihA6LRJQXDsxOX5PilnPxxjCnqS8zLkXQYZ0xHrQ7h2nJ4J5/GspYvIKuV5N11J/DeakfXujB7vPjvV7joaGlGR3b9F+V9ja4u55go0ViQguEZsHseRmj81BHC8QVnz197xX8nINs+eRWGnG1vbNyOtbP1gWHxEdplC3HgFJr0jLkhH9MLrxfNxv+J3Gqs+GcUpovTTttaqxVLUFN2PQaOv41nVxljomU1S1Cob3Zahi2N8n1u4YQRjRopGJ5A686j6JMtRccMfDCxBF3U/tKLPkQzeZWA2fYo7Ws6hYH0qahZY41tzH9+BcrSI4xVKvmoqZmKdEfwiu6/XMYkjr2uWrF6/NP1+CE1JchT3+Rhbt3wvk+iaCXtOk/7EiFrjaV9uY//ukr7bHjp1vDjoFGdZ1sXGuk1uF+v4l5jOlzrPM21nfqam319prEm1Fq7KSeCmlyTRuZaTQfHulG9NlS2RO2PLYRd54mZWPv6Y/ipfGKu9aRRIsnCc+QZwRl+gb21CD41qAD0LKaP38y67XisLA1de6rx5Ov6INFVlJLd9sSpRXaW+NJ/Gq3uMU7V9abEWIbFIjgxcBLvMjhplGB4xkVPPmUUo9Qx5lmLql9PR2ZSLlcaSbK7LieKFmHC8RdRXbMRw/inAEQxYbc9AXzHPB1/5ZQ6hqvbTjTaMDyJiAJgt52IKACGJxFRAAxPIqIAGJ5ERAEwPImIAkiJ2Xa1lCjLZ+lQ5Zt4pE6ux/T/08eECj2XNsaWMs2aswCPl/bj3eeP4I/6mK+SGdhdOVFfEc4fwd2NF/SV4ZCOdb9cgGlXhvt5iJzY8hwpzQ/gZb3r0h7vZunJo12E2PNvi8v7OGFUIyFKSqkdnqFAG+ZWJxElHbY8iYgCSMoxT2P7N2vjNMU+xhjL+KP7XPf4qLq9GB2bp6DnXtufaUZ4zLBjsJrnzz0dJY/1Vnp+j693cnIUmZMSULrXGvM8j5JVMzBJHx9sfR+/OODXPx96LPKh6iVYbCtrFPaxIo6j+j3PRDynX6P3Mc3t7brQVP0kC8pRYEnX8pTBY+ybae3s7hljjHb8UQcnjm0KPdb6zb2Y4dlEOR231YnAg1naYwe6A262LIO/+JR+LvV8R9En6y2FHqsOzbI0sWczEvHep8r9P71F5hJWuncgA/NEKKFZjmmKS/MFpJUuwHMl+vaoyXATwTmuDS+o8VFxeatNvIEF2F1tC0lBBqwMznPmc8rL/+ZEeE4zOC+IoH/bG8azZ6ld7UUzACU16ghRIMkVniLsZogWW3djgsYwVWVM185IMnhtJYtDHK1DHXC2csfR6lk3xdlqFM93RAa87bF6Dp5WO807SxZvRrF4733H3vG894SV7k1PxxcixJ5o19fb29Sk0KR/uRWz9KFozJoz2Qi3P3yKQ/oYej7F1lbxYDmTsS5USe9WzBMtUxmcoeeU2o84r4fIVqgZnGFWBRw8hLMqT7vQzu3tKA5JFZ7Zs4vVsqOElfc1y2HUfYKqIcpsdJ9yBmoiy3Nc7HW1nppb0NEPZBZVWHWYVk4LX7EzYaV7L6DdEVoD+PyK+JI+LtSNH1o6ZuWLpt/AFZzTR0yH/rtbhHw6xv3QuD7rn3JFi9n9nOHo7nt6hOBUDmNjjSzXzC47xYcTRpGo7r3ogqsANUsUN8fcmoyNHNO0yiEb1Thd47dowN4POxxdd9Vl79w74hU7z33lCvZoXRmwWp0uN2YZ73fSeP+Q9SVarNPk3aI9nyhODM8h1eENc/yxUQQWCrBw2ALUNhlkPqe4NMghALf6EyrUja670WV3t35HQkwBF6UvLhnvVwVztK1aOYn0VhsG0yfj8V/GNoxAFERShadvV1mPgyZEfaUO0KG746ol6FeeIxLV9RYh+GGYmX8HY1xVdd3V/SIMV8jZdlm697lEF+6diBI5Wx6hFeklzu0UoZiTg4f0EZO7m35IFdgXzxHthFTPp/hF8wURuCJAXRNPdka55kZs4YQRxSG5Wp66NWaV7BUtOTlb3h+saylnvh9cqa9oxox2L3oiheLKZrXUKLoQtNF1j3KnWrP0xuoBd7fdoCaO5Ky+KjTnnSgyJWy23eWhaj05E+OfRR460CZaqhOx2B5w2bdiRWk6BlvbrPFKc0KqcoE1iSSVzAg/295+BC+oiacZ+NMcv8/NLNcM5M1aCxYypqCSb52nY12mUdWydfYnqC06HVoX6bsOVHNXu/SsuXSvr3Q8n8lbTTPq53SVHJa37cTDevmVexVBLap2rcFtGT7VO+0SsM5Thtuf7p9shLBpoA0v2GfMBffaTTvnrLm1FtPkmVXXPI855DpP2318/rberMQpZ9y51pOCYhmOeOnw7HMvTB8ROjwRfsE9+UjELxNKeZwwGssqK1CQEWB4IMUtWySCE4M42cTgpOAYnmOWMZ6b2bnjKrR4xybZXZcTRYvGn8SL1Uux8aC+gSgAdtvjNdLddvsYq+OvmohoJDE8iYgCYLediCgAhicRUQAMTyKiABieREQBMDyJiALgbDvRKNHaGmwL79LS4d0kkfwlWcvT2AvzkQ32HdaH29V4zlFCrjkV7929ecpIk/sP2Pc/vdqvJx7jxo+P6XLVyL0OVi0JUIIlebDbTmNe6wq996ms96SPEQ03hicRUQAMTyKiAJJswsgoY5EZ2gPT3D/TVWtd8uzDGX5PTPdenM49P63nDB2zPbajhrrnOU3mc+st5i7twPqdEx3nuvcZldx7jfruRequD69fg/W3+Mbrh7je/CP7+/T5zPS5ei/hEE+d+Ki5Hy+a54ywd6nnvXkN9ZkZ/9Zy79R3kK32StU3hKnDb+4N2rWnGk/GWY1TThjFOo555auvfCeMrDr7bfixKoynb/DZg9U41/r/279+vnf/VclvD1a5U/+i3EGc/F1yb76SnC3PIhGccvNjVQNoEz7uL8DCXW9alSblD+SvgZ22OkF7Ov2qZMowkzu5Q/zAWufuxM/DV9M0A1LXIXIHp1UDXr4ueYMMDFcYyDrtdcXoMJ+zsQOZ5WtsEyEyUHQw6tckx/sgzrHqu8cmt1q8zwl7ba/N9ZnJ169/SRjnGM8ZeIxRbvosQ1FubmI+3twTKLa/fn2O/TkbjkEV44t9UiiWz0zWqVqDgjPm84arwz8TswqN7aHzihNd4iQRJmLxqgX4Sef7uub9EZxzlSiRm0YbIatr4uv6+Y5d+NXk0AzcKEI1VDtf1ovSNzuZO/WnobA8uffpT8rwzIS1a7xVaXI6KkM/cHV4w9WKaN0pg8BVC33lz313ae9ZV+nf8pE/oGZwuh7fLIt8JNTK0a9L/KAWe4LAFaiqvIh4Xz8yXlv2hipVs2iP/TmaH8BOVSu+asgyyb7kaw7t0NSA1jPisTIm4CZ9pPRe433tdLV+gxG/lObJap/uXaHEv0vounWOvWXYs+4V9Usnd579l+HQYv3MZGvaet46nJa187Mmup7zMA6dNSKk6/To3BtUtgytVuQFtJ8XX8alGwXyQnXxbaWadf38tNLJoRpTD/3rZKSJFutWT2vUzza0y/9ZRbSePXZYHUlWSRmefWdaHMFl1gYyw8dX8wVPKyq2Im4VRvcyTPfupgm23+QOA7j0F/2tqb8XF/W3BqOCp/HDXIvSIvFYnnN0TSPxCyDrFn0gBp7PzMGozhn5nBiYmzhHqvapz+nrlall5w32ocX6mXn/TdSMvs+/6+HNS1FdHX+XfXgM4MqX+lvtj42i1ai77eHq4huF9zLwY/WbwijyN9h5Ieoif9uekHXxk3+/1NSYMPIJRjm2ZV8bqLqQ+jZDLbKzxJdLF6IKjMzy6cb9w5xvtGwLMCO0HlS3rGKtsGmK8Loi/pIYdsZQh/OzdXWzb5kgWuE+vzR89P01XEt36AqmHqP2M7s6VNlo1bVfgt32S2X4yqNkSY3wFP8zyIkX8wfRnACSXTNzLE2Na6lbTQ3ouSS+eLpq/uTEgypLLMcr/cYdVWDIkF2jA2X4ag+FD5yR0IC999g/V+PimMBRPYFgLWTLEBVMY3R1P7OrQ9XFl9VPzXFMx+V9bEj0/5hJJiXC0xhvNFs6ZhfuKJqHmCG+2Cu7h8UojbaFU1+JBjWGdp/rL45sY3z2UAkUnLrbmj8N7jlWc1w1bP12wTgnVp2QPbnMCfYyonocVH8fE90TsJdY9mhuQYcc2/Sco//9Ok+ELbXsFd9nFolZ2mMs1oB3ds/D6Zdl+ZE23lx2YFDjoPp7N/Mz2V7HCaOxrfJN3CtamX3HXtETMLpFaQ9FPZPs7LbLyYm9Rh34umbHD132huawkzI966ZgT6fRwrS6qrG1YodivK4CLLS3cEPv06rf7g7/SOWPIzPDx5pYkY+1MGvAMxwSnTo0+/6S2YwHQ+9JT6iJc+xd/uwNDxuTeDtjKz8S7WcWm9E+2z4EVRc/HdPunxGaHPIawKFO8W+VMzlUO18ubVo8biDMbLv1maSVLcYY/FSilnQbg3jqrAvedYhyXM62hk/Nbp9AsV4WY5/d9Z5rdNGtc+QSGPf9rPtY5xrnuQNasl6fvl9U3Xnv4/mtt3R8Hmoy6wIqxf3kuk7jXL/Xbwats1a847HUTDnUfa3HipGrRr3vOs8hzwn/uUZzrvszM963XJoWZi2pS6LXeQYRfp0ncOKtobvfvrX2XfXuHeeo26DWfcKv1n7NFjQuzBPfJPdaT+6qNCL0D63PTLwRSBEWfhONOcuwpXER8gZO4sWajUjWBUupMWF0tZkTVj5LfVTXmiiJzKybC9nu7DqUvMEpMTxHgp4gySyqcI556jG3wMuViEYT2V1vbMRjZb1oGrVrXxOH3fYR4z825/7baiIaGxieREQBsNtORBQAw5OIKICYu+1ERMSWJxFRIAxPIqIAGJ5ERAEEDM/v8OG+8+iWl/rv9DEiotQR54SRDNEeFJzLRu7Ka/QxIqLkF2e3/Rrs+PN1wA1/Q+rtw01EqSwxY54Zf4N90zAiomTHCSMiogAYnkREAcQdng0X/1F/R0SUOuJveXb8A2Qlm6rffq8PEBElv/jDc38aJs/Pwd4Jn6t1n20MUSJKAfFvDDJ3EG2/uYTe3TmY93t9jIgoycXd8qyd+Q3SkYkTDE4iSiGcbSciCoDhSUQUAMOTiCgAhicRUQBxhud3uO/2b4Bz12K1PkJElAoChqe5n2cPCvqzsJHb0RFRimEBOCKiADjmSUQUAMOTiCgAhicRUQAMTyKiABieREQBMDyJiAJgeBIRBcDwJCIKgOFJRBQz4P8B2xJ60YciBm8AAAAASUVORK5CYII=;" vertex="1" parent="18">
                    <mxGeometry width="335" height="130" as="geometry"/>
                </mxCell>
                <mxCell id="17" value="CSS" style="rounded=1;whiteSpace=wrap;html=1;fillColor=none;fontColor=#ffffff;strokeColor=none;strokeWidth=2;imageAspect=0;recursiveResize=1;expand=1;fontSize=37;" vertex="1" parent="18">
                    <mxGeometry x="231.00411764705882" y="9.998235294117535" width="88" height="24" as="geometry"/>
                </mxCell>
                <mxCell id="20" style="edgeStyle=orthogonalEdgeStyle;html=1;entryX=0.5;entryY=1;entryDx=0;entryDy=0;fontSize=37;strokeWidth=3;" edge="1" parent="1" source="19" target="16">
                    <mxGeometry relative="1" as="geometry">
                        <Array as="points">
                            <mxPoint x="262" y="702"/>
                            <mxPoint x="876" y="702"/>
                        </Array>
                    </mxGeometry>
                </mxCell>
                <mxCell id="19" value="" style="ellipse;whiteSpace=wrap;html=1;strokeColor=default;strokeWidth=2;fontSize=37;fillColor=none;" vertex="1" parent="1">
                    <mxGeometry x="202" y="581" width="120" height="34" as="geometry"/>
                </mxCell>
            </root>
        </mxGraphModel>
    </diagram>
</mxfile>